<svg width="408" height="330" viewBox="0 0 408 330" fill="none" xmlns="http://www.w3.org/2000/svg">
<path d="M379.698 83L204 329.139L28.302 83L379.698 83Z" stroke="#8F8F8F"/>
<path d="M339.928 103.195L204.5 292.919L69.0722 103.195L339.928 103.195Z" stroke="#8F8F8F"/>
<circle cx="204" cy="175" r="53.5" stroke="#8F8F8F" stroke-width="5"/>
<mask id="path-4-inside-1_2470_2131" fill="white">
<path fill-rule="evenodd" clip-rule="evenodd" d="M210.32 165.831C210.728 161.95 210.938 158.002 210.938 154C210.938 145.108 209.902 136.484 207.958 128.269C206.955 128.161 205.948 128.086 204.938 128.043C198.435 127.766 191.945 128.842 185.88 131.205C179.944 133.517 174.542 137.011 170 141.473C185.892 145.474 199.869 154.117 210.32 165.831Z"/>
</mask>
<path d="M210.32 165.831L209.574 166.497L211.078 168.183L211.314 165.936L210.32 165.831ZM207.958 128.269L208.931 128.039L208.768 127.35L208.065 127.275L207.958 128.269ZM204.938 128.043L204.981 127.044L204.981 127.044L204.938 128.043ZM185.88 131.205L186.243 132.137L186.243 132.137L185.88 131.205ZM170 141.473L169.299 140.76L168.029 142.008L169.756 142.443L170 141.473ZM209.938 154C209.938 157.967 209.73 161.88 209.325 165.726L211.314 165.936C211.726 162.02 211.938 158.037 211.938 154H209.938ZM206.985 128.499C208.911 136.639 209.938 145.186 209.938 154H211.938C211.938 145.03 210.893 136.329 208.931 128.039L206.985 128.499ZM208.065 127.275C207.041 127.165 206.012 127.087 204.981 127.044L204.896 129.042C205.884 129.084 206.87 129.158 207.851 129.263L208.065 127.275ZM204.981 127.044C198.339 126.761 191.712 127.86 185.517 130.273L186.243 132.137C192.179 129.825 198.531 128.771 204.896 129.042L204.981 127.044ZM185.517 130.273C179.455 132.634 173.938 136.202 169.299 140.76L170.701 142.186C175.146 137.819 180.434 134.399 186.243 132.137L185.517 130.273ZM169.756 142.443C185.451 146.394 199.254 154.931 209.574 166.497L211.066 165.165C200.483 153.304 186.332 144.554 170.244 140.503L169.756 142.443Z" fill="#8F8F8F" mask="url(#path-4-inside-1_2470_2131)"/>
<mask id="path-6-inside-2_2470_2131" fill="white">
<path fill-rule="evenodd" clip-rule="evenodd" d="M213.03 176.787C216.601 175.213 220.131 173.433 223.605 171.445C231.322 167.027 238.292 161.845 244.456 156.076C244.051 155.153 243.617 154.241 243.152 153.343C240.162 147.562 236.003 142.464 230.94 138.374C225.985 134.371 220.268 131.418 214.139 129.693C218.562 145.473 218.004 161.897 213.03 176.787Z"/>
</mask>
<path d="M213.03 176.787L212.082 176.47L211.366 178.613L213.434 177.702L213.03 176.787ZM244.456 156.076L245.139 156.806L245.656 156.323L245.372 155.675L244.456 156.076ZM243.152 153.343L244.04 152.883L243.152 153.343ZM230.94 138.374L231.568 137.596L231.568 137.596L230.94 138.374ZM214.139 129.693L214.41 128.731L212.696 128.248L213.176 129.963L214.139 129.693ZM223.108 170.577C219.665 172.548 216.166 174.312 212.627 175.871L213.434 177.702C217.036 176.114 220.598 174.319 224.102 172.313L223.108 170.577ZM243.773 155.346C237.665 161.062 230.758 166.198 223.108 170.577L224.102 172.313C231.886 167.857 238.919 162.628 245.139 156.806L243.773 155.346ZM245.372 155.675C244.959 154.732 244.515 153.801 244.04 152.883L242.264 153.802C242.719 154.681 243.144 155.573 243.54 156.477L245.372 155.675ZM244.04 152.883C240.986 146.979 236.739 141.773 231.568 137.596L230.312 139.152C235.267 143.155 239.337 148.144 242.264 153.802L244.04 152.883ZM231.568 137.596C226.508 133.508 220.67 130.492 214.41 128.731L213.868 130.656C219.867 132.344 225.462 135.234 230.312 139.152L231.568 137.596ZM213.176 129.963C217.544 145.548 216.993 161.768 212.082 176.47L213.979 177.103C219.015 162.027 219.579 145.398 215.102 129.423L213.176 129.963Z" fill="#8F8F8F" mask="url(#path-6-inside-2_2470_2131)"/>
<mask id="path-8-inside-3_2470_2131" fill="white">
<path fill-rule="evenodd" clip-rule="evenodd" d="M195.618 182.575C195.265 186.461 195.112 190.411 195.169 194.413C195.295 203.305 196.454 211.913 198.515 220.099C199.519 220.193 200.527 220.254 201.537 220.283C208.044 220.467 214.517 219.298 220.548 216.849C226.451 214.453 231.803 210.882 236.281 206.356C220.334 202.581 206.234 194.138 195.618 182.575Z"/>
</mask>
<path d="M195.618 182.575L196.354 181.898L194.826 180.234L194.622 182.484L195.618 182.575ZM198.515 220.099L197.545 220.344L197.718 221.03L198.422 221.095L198.515 220.099ZM201.537 220.283L201.509 221.282L201.537 220.283ZM220.548 216.849L220.925 217.776L220.925 217.776L220.548 216.849ZM236.281 206.356L236.992 207.059L238.244 205.793L236.511 205.382L236.281 206.356ZM196.169 194.399C196.112 190.432 196.264 186.517 196.614 182.665L194.622 182.484C194.266 186.405 194.111 190.391 194.169 194.428L196.169 194.399ZM199.485 219.855C197.442 211.744 196.294 203.213 196.169 194.399L194.169 194.428C194.297 203.397 195.465 212.082 197.545 220.344L199.485 219.855ZM198.422 221.095C199.447 221.19 200.477 221.253 201.509 221.282L201.566 219.283C200.577 219.255 199.59 219.195 198.607 219.104L198.422 221.095ZM201.509 221.282C208.154 221.47 214.765 220.276 220.925 217.776L220.172 215.922C214.27 218.319 207.934 219.463 201.566 219.283L201.509 221.282ZM220.925 217.776C226.952 215.328 232.418 211.682 236.992 207.059L235.57 205.652C231.187 210.083 225.949 213.577 220.172 215.922L220.925 217.776ZM236.511 205.382C220.761 201.655 206.837 193.316 196.354 181.898L194.881 183.251C205.632 194.96 219.906 203.508 236.05 207.329L236.511 205.382Z" fill="#8F8F8F" mask="url(#path-8-inside-3_2470_2131)"/>
<mask id="path-10-inside-4_2470_2131" fill="white">
<path fill-rule="evenodd" clip-rule="evenodd" d="M207.303 185.148C210.486 187.405 213.824 189.522 217.313 191.483C225.065 195.84 233.09 199.163 241.204 201.494C241.789 200.673 242.348 199.832 242.881 198.972C246.309 193.439 248.55 187.254 249.462 180.81C250.355 174.502 249.957 168.081 248.292 161.935C237.018 173.828 222.634 181.777 207.303 185.148Z"/>
</mask>
<path d="M207.303 185.148L207.088 184.171L204.881 184.656L206.724 185.964L207.303 185.148ZM241.204 201.494L240.928 202.455L241.608 202.65L242.018 202.074L241.204 201.494ZM242.881 198.972L243.731 199.499L242.881 198.972ZM249.462 180.81L250.452 180.95L250.452 180.95L249.462 180.81ZM248.292 161.935L249.258 161.674L248.792 159.955L247.567 161.247L248.292 161.935ZM217.803 190.612C214.345 188.668 211.036 186.569 207.881 184.332L206.724 185.964C209.936 188.241 213.304 190.377 216.823 192.355L217.803 190.612ZM241.48 200.533C233.44 198.224 225.487 194.931 217.803 190.612L216.823 192.355C224.643 196.75 232.739 200.103 240.928 202.455L241.48 200.533ZM242.018 202.074C242.616 201.236 243.187 200.377 243.731 199.499L242.031 198.446C241.509 199.287 240.962 200.11 240.389 200.914L242.018 202.074ZM243.731 199.499C247.232 193.848 249.52 187.532 250.452 180.95L248.472 180.669C247.579 186.977 245.386 193.03 242.031 198.446L243.731 199.499ZM250.452 180.95C251.364 174.508 250.957 167.95 249.258 161.674L247.327 162.196C248.956 168.212 249.346 174.496 248.472 180.669L250.452 180.95ZM247.567 161.247C236.431 172.993 222.227 180.843 207.088 184.171L207.517 186.125C223.042 182.711 237.604 174.663 249.018 162.623L247.567 161.247Z" fill="#8F8F8F" mask="url(#path-10-inside-4_2470_2131)"/>
<mask id="path-12-inside-5_2470_2131" fill="white">
<path fill-rule="evenodd" clip-rule="evenodd" d="M192.1 171.536C188.532 173.117 185.006 174.904 181.536 176.899C173.828 181.333 166.869 186.531 160.718 192.313C161.125 193.235 161.561 194.146 162.028 195.043C165.03 200.818 169.2 205.907 174.272 209.986C179.235 213.978 184.958 216.919 191.091 218.631C186.635 202.861 187.157 186.435 192.1 171.536Z"/>
</mask>
<path d="M192.1 171.536L193.049 171.85L193.76 169.706L191.694 170.621L192.1 171.536ZM160.718 192.313L160.033 191.584L159.518 192.069L159.803 192.716L160.718 192.313ZM162.028 195.043L161.14 195.504L162.028 195.043ZM174.272 209.986L173.645 210.765L173.645 210.765L174.272 209.986ZM191.091 218.631L190.822 219.594L192.537 220.073L192.053 218.359L191.091 218.631ZM182.035 177.766C185.474 175.788 188.969 174.017 192.505 172.45L191.694 170.621C188.095 172.217 184.537 174.02 181.038 176.033L182.035 177.766ZM161.403 193.041C167.498 187.313 174.394 182.162 182.035 177.766L181.038 176.033C173.262 180.505 166.241 185.749 160.033 191.584L161.403 193.041ZM159.803 192.716C160.218 193.658 160.664 194.588 161.14 195.504L162.915 194.582C162.458 193.704 162.031 192.813 161.633 191.91L159.803 192.716ZM161.14 195.504C164.207 201.402 168.465 206.599 173.645 210.765L174.898 209.207C169.934 205.214 165.854 200.234 162.915 194.582L161.14 195.504ZM173.645 210.765C178.714 214.842 184.558 217.846 190.822 219.594L191.359 217.668C185.357 215.992 179.757 213.114 174.898 209.207L173.645 210.765ZM192.053 218.359C187.652 202.784 188.169 186.562 193.049 171.85L191.15 171.221C186.146 186.308 185.617 202.938 190.128 218.903L192.053 218.359Z" fill="#8F8F8F" mask="url(#path-12-inside-5_2470_2131)"/>
<mask id="path-14-inside-6_2470_2131" fill="white">
<path fill-rule="evenodd" clip-rule="evenodd" d="M200.105 163.827C196.976 161.497 193.687 159.303 190.244 157.262C182.596 152.726 174.65 149.218 166.592 146.7C165.988 147.507 165.409 148.335 164.857 149.182C161.302 154.634 158.918 160.766 157.856 167.187C156.817 173.472 157.067 179.901 158.589 186.084C170.136 174.456 184.7 166.842 200.105 163.827Z"/>
</mask>
<path d="M200.105 163.827L200.297 164.809L202.515 164.375L200.703 163.025L200.105 163.827ZM166.592 146.7L166.89 145.746L166.215 145.535L165.791 146.101L166.592 146.7ZM164.857 149.182L164.02 148.636L164.857 149.182ZM157.856 167.187L156.87 167.024L156.87 167.024L157.856 167.187ZM158.589 186.084L157.618 186.323L158.043 188.052L159.298 186.789L158.589 186.084ZM189.734 158.122C193.147 160.145 196.406 162.32 199.508 164.629L200.703 163.025C197.545 160.674 194.227 158.461 190.754 156.401L189.734 158.122ZM166.294 147.655C174.278 150.149 182.152 153.626 189.734 158.122L190.754 156.401C183.039 151.826 175.022 148.286 166.89 145.746L166.294 147.655ZM165.791 146.101C165.175 146.926 164.584 147.771 164.02 148.636L165.695 149.728C166.235 148.899 166.802 148.089 167.393 147.299L165.791 146.101ZM164.02 148.636C160.389 154.204 157.954 160.466 156.87 167.024L158.843 167.35C159.882 161.065 162.215 155.064 165.695 149.728L164.02 148.636ZM156.87 167.024C155.809 173.443 156.064 180.009 157.618 186.323L159.56 185.845C158.071 179.794 157.826 173.502 158.843 167.35L156.87 167.024ZM159.298 186.789C170.703 175.304 185.086 167.785 200.297 164.809L199.913 162.846C184.314 165.899 169.569 173.608 157.879 185.379L159.298 186.789Z" fill="#8F8F8F" mask="url(#path-14-inside-6_2470_2131)"/>
<rect x="76.5" y="50.5" width="38" height="20" stroke="#8F8F8F"/>
</svg>
