<svg width="160" height="218" viewBox="0 0 160 218" fill="none" xmlns="http://www.w3.org/2000/svg">
<path d="M94 78C94 85.732 87.732 92 80 92C72.268 92 66 85.732 66 78C66 70.268 72.268 64 80 64C87.732 64 94 70.268 94 78ZM70.9 78C70.9 83.0258 74.9742 87.1 80 87.1C85.0258 87.1 89.1 83.0258 89.1 78C89.1 72.9742 85.0258 68.9 80 68.9C74.9742 68.9 70.9 72.9742 70.9 78Z" fill="#D9D9D9"/>
<rect x="47" y="116" width="12" height="61" fill="#D9D9D9"/>
<rect x="74" y="96" width="12" height="61" fill="#D9D9D9"/>
<rect x="47" y="178" width="12" height="66" transform="rotate(-90 47 178)" fill="#D9D9D9"/>
<rect x="58" y="194" width="11" height="44" transform="rotate(-90 58 194)" fill="#D9D9D9"/>
<path d="M99 199C99 204.039 96.9982 208.872 93.435 212.435C89.8718 215.998 85.0391 218 80 218C74.9609 218 70.1282 215.998 66.565 212.435C63.0018 208.872 61 204.039 61 199L80 199H99Z" fill="#D9D9D9"/>
<path fill-rule="evenodd" clip-rule="evenodd" d="M101.014 157.191C119.272 152.221 135.177 140.939 145.904 125.351C156.63 109.763 161.485 90.8776 159.604 72.049C157.723 53.2204 149.23 35.6679 135.631 22.5095C122.033 9.35116 104.211 1.43876 85.3308 0.177892C66.4506 -1.08298 47.7346 4.38931 32.5075 15.6227C17.2804 26.856 6.52801 43.1232 2.16038 61.5345C-2.20726 79.9459 0.0926246 99.3094 8.65148 116.185C16.8959 132.441 30.4336 145.375 47.0001 152.877V135.563C36.5081 129.332 27.9388 120.221 22.3648 109.23C15.451 95.5981 13.5932 79.9563 17.1214 65.0837C20.6495 50.211 29.3353 37.0704 41.6357 27.9962C53.9361 18.9219 69.0548 14.5014 84.3063 15.5199C99.5577 16.5384 113.954 22.93 124.939 33.5594C135.923 44.1887 142.785 58.3675 144.304 73.5772C145.823 88.7869 141.902 104.043 133.237 116.635C125.37 128.067 114.055 136.631 101 141.117V157.141L101.014 157.191Z" fill="#D9D9D9"/>
<path fill-rule="evenodd" clip-rule="evenodd" d="M113 64H101V157H101.718C105.587 155.951 109.361 154.577 113 152.895V64Z" fill="#D9D9D9"/>
</svg>
