<svg width="202" height="205" viewBox="0 0 202 205" fill="none" xmlns="http://www.w3.org/2000/svg">
<path d="M117 175.57V182.97L119 182.477" stroke="#8F8F8F"/>
<mask id="path-2-inside-1_2470_1970" fill="white">
<path fill-rule="evenodd" clip-rule="evenodd" d="M90.5006 19.667C76.6933 21.4278 63.5446 26.6338 52.2685 34.8125C41.6402 42.5213 33.0057 52.6317 27.0566 64.3001L32.4659 69.7376C37.9057 58.1821 46.1809 48.1857 56.526 40.6823C66.5669 33.3995 78.2348 28.6995 90.5006 26.9827V19.667Z"/>
</mask>
<path d="M90.5006 19.667H91.5006V18.5314L90.3741 18.675L90.5006 19.667ZM52.2685 34.8125L52.8556 35.622L52.8556 35.622L52.2685 34.8125ZM27.0566 64.3001L26.1657 63.8459L25.8366 64.4915L26.3477 65.0054L27.0566 64.3001ZM32.4659 69.7376L31.757 70.4429L32.7631 71.4543L33.3707 70.1635L32.4659 69.7376ZM56.526 40.6823L55.9388 39.8728L55.9388 39.8728L56.526 40.6823ZM90.5006 26.9827L90.6392 27.9731L91.5006 27.8525V26.9827H90.5006ZM90.3741 18.675C76.4004 20.4571 63.0933 25.7257 51.6814 34.003L52.8556 35.622C63.9959 27.5418 76.9861 22.3986 90.6271 20.659L90.3741 18.675ZM51.6814 34.003C40.925 41.8047 32.1865 52.0369 26.1657 63.8459L27.9475 64.7543C33.8249 53.2265 42.3554 43.2379 52.8556 35.622L51.6814 34.003ZM26.3477 65.0054L31.757 70.4429L33.1749 69.0324L27.7656 63.5948L26.3477 65.0054ZM33.3707 70.1635C38.7386 58.7605 46.9046 48.8962 57.1131 41.4918L55.9388 39.8728C45.4572 47.4753 37.0727 57.6036 31.5612 69.3117L33.3707 70.1635ZM57.1131 41.4918C67.0215 34.3051 78.5354 29.6671 90.6392 27.9731L90.362 25.9924C77.9343 27.7318 66.1123 32.4939 55.9388 39.8728L57.1131 41.4918ZM91.5006 26.9827V19.667H89.5006V26.9827H91.5006Z" fill="#8F8F8F" mask="url(#path-2-inside-1_2470_1970)"/>
<mask id="path-4-inside-2_2470_1970" fill="white">
<path fill-rule="evenodd" clip-rule="evenodd" d="M144.664 41.5628C134.778 34.0935 123.218 29.1681 111 27.2079V19.8721C124.811 21.8901 137.894 27.3592 149.035 35.7772C159.397 43.6061 167.764 53.7468 173.481 65.3715L168.042 70.8384C162.825 59.2797 154.788 49.2121 144.664 41.5628Z"/>
</mask>
<path d="M111 27.2079H110V28.0602L110.842 28.1952L111 27.2079ZM144.664 41.5628L144.061 42.3607L144.061 42.3607L144.664 41.5628ZM111 19.8721L111.145 18.8826L110 18.7153V19.8721H111ZM149.035 35.7772L148.433 36.5751L148.433 36.5751L149.035 35.7772ZM173.481 65.3715L174.19 66.0767L174.693 65.5707L174.378 64.9302L173.481 65.3715ZM168.042 70.8384L167.131 71.2498L167.728 72.5725L168.751 71.5437L168.042 70.8384ZM110.842 28.1952C122.898 30.1296 134.306 34.99 144.061 42.3607L145.267 40.7649C135.251 33.197 123.538 28.2066 111.158 26.2205L110.842 28.1952ZM110 19.8721V27.2079H112V19.8721H110ZM149.638 34.9794C138.363 26.4599 125.122 20.9249 111.145 18.8826L110.855 20.8616C124.5 22.8552 137.425 28.2585 148.433 36.5751L149.638 34.9794ZM174.378 64.9302C168.592 53.1655 160.125 42.9026 149.638 34.9794L148.433 36.5751C158.669 44.3096 166.935 54.3282 172.583 65.8128L174.378 64.9302ZM168.751 71.5437L174.19 66.0767L172.772 64.6662L167.333 70.1331L168.751 71.5437ZM144.061 42.3607C154.052 49.909 161.983 59.8437 167.131 71.2498L168.954 70.427C163.668 58.7157 155.525 48.5152 145.267 40.7649L144.061 42.3607Z" fill="#8F8F8F" mask="url(#path-4-inside-2_2470_1970)"/>
<path fill-rule="evenodd" clip-rule="evenodd" d="M68.5 75.685C72.8131 74.5748 76 70.6596 76 66C76 60.4772 71.5228 56 66 56C60.4772 56 56 60.4772 56 66C56 70.6596 59.1869 74.5748 63.5 75.685V76.7147C58.6293 75.5827 55 71.2152 55 66C55 59.9249 59.9249 55 66 55C72.0751 55 77 59.9249 77 66C77 71.2152 73.3707 75.5827 68.5 76.7147V75.685ZM61.1712 66C61.1712 68.6669 63.3331 70.8288 66 70.8288C68.6669 70.8288 70.8288 68.6669 70.8288 66C70.8288 63.3331 68.6669 61.1712 66 61.1712C63.3331 61.1712 61.1712 63.3331 61.1712 66ZM62.1712 66C62.1712 68.1146 63.8854 69.8288 66 69.8288C68.1146 69.8288 69.8288 68.1146 69.8288 66C69.8288 63.8854 68.1146 62.1712 66 62.1712C63.8854 62.1712 62.1712 63.8854 62.1712 66Z" fill="#8F8F8F"/>
<path fill-rule="evenodd" clip-rule="evenodd" d="M111 66C111 71.5228 106.523 76 101 76C95.4772 76 91 71.5228 91 66C91 61.5224 93.9429 57.7321 98 56.4578V55.4141C93.383 56.7199 90 60.9649 90 66C90 72.0751 94.9249 77 101 77C107.075 77 112 72.0751 112 66C112 60.7848 108.371 56.4173 103.5 55.2853V56.315C107.813 57.4252 111 61.3404 111 66ZM96.1712 66C96.1712 68.6669 98.3331 70.8288 101 70.8288C103.667 70.8288 105.829 68.6669 105.829 66C105.829 63.3331 103.667 61.1712 101 61.1712C98.3331 61.1712 96.1712 63.3331 96.1712 66ZM97.1712 66C97.1712 68.1146 98.8854 69.8288 101 69.8288C103.115 69.8288 104.829 68.1146 104.829 66C104.829 63.8854 103.115 62.1712 101 62.1712C98.8854 62.1712 97.1712 63.8854 97.1712 66Z" fill="#8F8F8F"/>
<path fill-rule="evenodd" clip-rule="evenodd" d="M138 75.685C142.313 74.5748 145.5 70.6596 145.5 66C145.5 60.4772 141.023 56 135.5 56C129.977 56 125.5 60.4772 125.5 66C125.5 70.6596 128.687 74.5748 133 75.685V76.7147C128.129 75.5827 124.5 71.2152 124.5 66C124.5 59.9249 129.425 55 135.5 55C141.575 55 146.5 59.9249 146.5 66C146.5 71.2152 142.871 75.5827 138 76.7147V75.685ZM130.671 66C130.671 68.6669 132.833 70.8288 135.5 70.8288C138.167 70.8288 140.329 68.6669 140.329 66C140.329 63.3331 138.167 61.1712 135.5 61.1712C132.833 61.1712 130.671 63.3331 130.671 66ZM131.671 66C131.671 68.1146 133.385 69.8288 135.5 69.8288C137.615 69.8288 139.329 68.1146 139.329 66C139.329 63.8854 137.615 62.1712 135.5 62.1712C133.385 62.1712 131.671 63.8854 131.671 66Z" fill="#8F8F8F"/>
<path fill-rule="evenodd" clip-rule="evenodd" d="M146.345 125.383C144.762 124.502 142.94 124 141 124C134.925 124 130 128.925 130 135C130 141.075 134.925 146 141 146C147.075 146 152 141.075 152 135C152 132.678 151.281 130.524 150.053 128.749L149.343 129.484C150.39 131.065 151 132.961 151 135C151 140.523 146.523 145 141 145C135.477 145 131 140.523 131 135C131 129.477 135.477 125 141 125C142.668 125 144.24 125.408 145.623 126.13L146.345 125.383ZM136.171 135C136.171 137.667 138.333 139.829 141 139.829C143.667 139.829 145.829 137.667 145.829 135C145.829 132.333 143.667 130.171 141 130.171C138.333 130.171 136.171 132.333 136.171 135ZM137.171 135C137.171 137.115 138.885 138.829 141 138.829C143.115 138.829 144.829 137.115 144.829 135C144.829 132.885 143.115 131.171 141 131.171C138.885 131.171 137.171 132.885 137.171 135Z" fill="#8F8F8F"/>
<rect x="51.6133" y="128.894" width="0.963273" height="1.00873" transform="rotate(44.4418 51.6133 128.894)" fill="#8F8F8F"/>
<rect x="56.0391" y="124.848" width="0.963273" height="0.976775" transform="rotate(44.4418 56.0391 124.848)" fill="#8F8F8F"/>
<path fill-rule="evenodd" clip-rule="evenodd" d="M71 135C71 140.523 66.5228 145 61 145C55.4772 145 51 140.523 51 135C51 133.069 51.5471 131.266 52.4948 129.738L51.7582 129.032C50.6458 130.751 50 132.8 50 135C50 141.075 54.9249 146 61 146C67.0751 146 72 141.075 72 135C72 128.925 67.0751 124 61 124C58.9361 124 57.005 124.568 55.3546 125.557L56.106 126.277C57.5526 125.464 59.2221 125 61 125C66.5228 125 71 129.477 71 135ZM56.1712 135C56.1712 137.667 58.3331 139.829 61 139.829C63.6669 139.829 65.8288 137.667 65.8288 135C65.8288 132.333 63.6669 130.171 61 130.171C58.3331 130.171 56.1712 132.333 56.1712 135ZM57.1712 135C57.1712 137.115 58.8854 138.829 61 138.829C63.1146 138.829 64.8288 137.115 64.8288 135C64.8288 132.885 63.1146 131.171 61 131.171C58.8854 131.171 57.1712 132.885 57.1712 135Z" fill="#8F8F8F"/>
<path fill-rule="evenodd" clip-rule="evenodd" d="M104.301 116.57C110.732 114.98 115.5 109.172 115.5 102.25C115.5 94.1038 108.896 87.5 100.75 87.5C92.6038 87.5 86 94.1038 86 102.25C86 109.208 90.8185 115.041 97.3008 116.595V117.621C90.2613 116.048 85 109.764 85 102.25C85 93.5515 92.0515 86.5 100.75 86.5C109.448 86.5 116.5 93.5515 116.5 102.25C116.5 109.727 111.289 115.988 104.301 117.598V116.57ZM93.5274 102.25C93.5274 106.239 96.7611 109.473 100.75 109.473C104.739 109.473 107.973 106.239 107.973 102.25C107.973 98.2611 104.739 95.0274 100.75 95.0274C96.7611 95.0274 93.5274 98.2611 93.5274 102.25ZM94.5274 102.25C94.5274 105.687 97.3134 108.473 100.75 108.473C104.187 108.473 106.973 105.687 106.973 102.25C106.973 98.8134 104.187 96.0274 100.75 96.0274C97.3134 96.0274 94.5274 98.8134 94.5274 102.25Z" fill="#8F8F8F"/>
<path fill-rule="evenodd" clip-rule="evenodd" d="M184.419 63.5H184.291L184.144 63.65L159.144 89.15L159.001 89.2958V89.5V110.798L145.641 124.653L145.279 125.028L145.668 125.374L146.026 125.691L147.717 123.939L147.718 123.94L159.861 111.347L160.001 111.202V111V89.7042L184.711 64.5H184.842L184.419 63.5ZM192.71 63.5844L192.625 63.5H193.001H194.192L193.357 64.3503L178.721 79.2578L178.413 78.144L191.809 64.5H191.801L192.71 63.5844ZM174.166 82.4699L165.647 91.1464L165.644 91.1497L165.147 91.6464L165.001 91.7929V92V113.793L150.48 128.313L150.475 128.308L149.779 129.028L150.168 129.374L150.521 129.687L150.854 129.354L165.854 114.354L166.001 114.207V114V92.2071L166.354 91.8536L166.354 91.8536L166.357 91.8503L174.474 83.5838L174.166 82.4699Z" fill="#8F8F8F"/>
<path fill-rule="evenodd" clip-rule="evenodd" d="M98 9.5H97.5H97V10V56V56.5H97.5H98V55.5V55V12V10.5V9.5ZM103.5 10.5V12V55V55.5V56.5H104H104.5V56V10V9.5H104H103.5V10.5Z" fill="#8F8F8F"/>
<path fill-rule="evenodd" clip-rule="evenodd" d="M96.8008 116.997H97.3008V117.997V120.478V193V194.503V195.503H96.8008H96.3008V195.003V117.497V116.997H96.8008ZM104.301 195.503H104.801H105.301V195.003V117.497V116.997H104.801H104.301V117.997V120.478V193V194.503V195.503Z" fill="#8F8F8F"/>
<path fill-rule="evenodd" clip-rule="evenodd" d="M1.78788 116.544C0.00495473 102.407 1.25858 88.071 5.44128 74.493L11.9205 81.0818C9.04064 92.299 8.2941 103.988 9.75014 115.533C11.5833 130.068 16.8545 143.953 25.1248 156.033C33.3952 168.112 44.4254 178.036 57.2965 184.976C69.633 191.629 83.3184 195.357 97.3008 195.884V194.884C83.4843 194.357 69.962 190.67 57.7712 184.096C45.0404 177.231 34.1304 167.416 25.95 155.468C17.7695 143.52 12.5555 129.785 10.7423 115.408C9.27841 103.801 10.0653 92.0466 13.031 80.7848L5.78093 73.4122L4.99001 72.6079C4.87319 72.966 4.7584 73.3247 4.64565 73.6839C0.293333 87.5496 -1.02751 102.212 0.795743 116.669C2.80936 132.635 8.59956 147.887 17.684 161.155C26.7685 174.424 38.8841 185.324 53.0217 192.948C67.1593 200.571 82.9094 204.698 98.9601 204.984C115.011 205.27 130.897 201.707 145.296 194.591C159.695 187.476 172.189 177.014 181.738 164.078C191.287 151.141 197.614 136.105 200.192 120.221C202.713 104.69 201.579 88.789 196.886 73.7843L196.864 73.7134C196.785 73.4614 196.705 73.2097 196.624 72.9582L196.56 72.7607L196.457 72.7943L195.751 73.5121L188.497 80.89C191.717 93.1786 192.338 106.028 190.297 118.606C187.975 132.91 182.278 146.45 173.679 158.099C165.08 169.748 153.829 179.169 140.863 185.576C129.443 191.22 116.985 194.382 104.301 194.88V195.88C117.138 195.382 129.749 192.184 141.306 186.473C154.415 179.995 165.79 170.47 174.483 158.693C183.177 146.916 188.937 133.227 191.284 118.767C193.317 106.238 192.738 93.4437 189.607 81.1875L196.09 74.5939C200.603 89.3 201.672 104.859 199.205 120.06C196.652 135.788 190.388 150.676 180.934 163.484C171.479 176.292 159.109 186.65 144.853 193.695C130.597 200.739 114.869 204.267 98.9779 203.984C83.087 203.701 67.4934 199.615 53.4963 192.067C39.4992 184.519 27.5036 173.727 18.5091 160.59C9.51462 147.453 3.78161 132.352 1.78788 116.544Z" fill="#8F8F8F"/>
<path fill-rule="evenodd" clip-rule="evenodd" d="M156.611 18.1897C172.826 29.2048 185.442 44.7655 192.892 62.9221L192.886 62.9248L193.132 63.1748L191.889 64.4026L194.195 63.4764L194.195 63.4762C194.135 63.326 194.075 63.176 194.014 63.0262C193.95 62.8671 193.885 62.7081 193.82 62.5494C186.296 44.2087 173.552 28.4896 157.173 17.3625C140.517 6.04837 120.866 0.000886416 100.754 0C80.6411 -0.000884844 60.9895 6.04487 44.3333 17.3575C27.9525 28.4832 15.2079 44.2012 7.68172 62.5412C7.61653 62.7001 7.55173 62.8591 7.48733 63.0184C7.42676 63.1681 7.36654 63.318 7.30667 63.4681L7.30664 63.4682L9.60008 64.3894L8.36287 63.1273L8.62936 62.866C16.0841 44.7307 28.6935 29.1888 44.8952 18.1848C61.3858 6.98456 80.8417 0.999124 100.754 1C120.666 1.00088 140.121 6.98803 156.611 18.1897ZM16.6784 64.4203C23.6026 48.3964 34.941 34.6641 49.3855 24.8536C63.7887 15.0711 80.6527 9.61432 98 9.09198V10.0924C80.8533 10.6145 64.185 16.0108 49.9473 25.6809C35.5479 35.4608 24.2687 49.1815 17.4352 65.1924L16.6784 64.4203ZM151.558 25.6853C137.319 16.0128 120.649 10.6148 103.5 10.0925V9.09202C120.85 9.61469 137.716 15.0731 152.12 24.8581C166.553 34.6632 177.885 48.3844 184.809 64.3948L184.056 65.1741C177.222 49.1736 165.949 35.4613 151.558 25.6853Z" fill="#8F8F8F"/>
<path fill-rule="evenodd" clip-rule="evenodd" d="M16.7092 64.4282L16.7807 64.5H16.7902L17.4058 65.1279L17.717 65.4405L17.7146 65.4429L41.5002 89.7042V111V111.202L41.6403 111.347L54.7788 124.972L54.7755 124.975L55.4872 125.681L55.8324 125.374L56.2216 125.028L55.8601 124.653L42.5002 110.798V89.5V89.2958L42.3572 89.15L17.3572 63.65L17.2102 63.5H17.0741L16.7092 64.4282ZM8.50021 63.5H8.7165L9.71204 64.5H9.69183L22.6317 77.6795L22.3196 78.7889L8.14343 64.3503L7.30859 63.5H8.50021ZM26.6014 83.1501L35.1434 91.8503L35.1466 91.8536L35.1467 91.8536L35.5002 92.2071V114V114.207L35.6467 114.354L50.6467 129.354L50.98 129.687L51.3324 129.374L51.7371 129.014L51.0254 128.309L51.0204 128.313L36.5002 113.793V92V91.7929L36.3538 91.6464L35.857 91.1497L35.8538 91.1464L27.0106 82.1395L26.6014 83.1501Z" fill="#8F8F8F"/>
<path fill-rule="evenodd" clip-rule="evenodd" d="M63 75.9976H63.5V76.9976V77.4926V107.896L78.8527 123.173L79 123.32V123.528V173V173.884V174.914L78.3793 174.76L78 174.666V174.275V123.735L62.6473 108.459L62.5 108.312V108.104V76.4976V75.9976H63ZM84 176.158L84.3793 176.253L85 176.407V175.767V121.04V120.832L84.8527 120.685L69.5 105.409V76.4976V75.9976H69H68.5V76.9976V77.4926V105.617V105.825L68.6473 105.971L84 121.248V173V175.128V176.158Z" fill="#8F8F8F"/>
<path fill-rule="evenodd" clip-rule="evenodd" d="M84.0006 175.5V182.262L82.6203 181.921L82.3809 182.892L84.3809 183.385L85.0006 183.538V182.9V175.5H84.0006Z" fill="#8F8F8F"/>
<path fill-rule="evenodd" clip-rule="evenodd" d="M22.1618 77.1766L22.6236 77.6481L22.032 79.9102L22.0333 79.9105C19.216 89.9822 18.3491 100.508 19.4886 110.92C20.7241 122.21 24.2915 133.121 29.9646 142.96C35.6378 152.799 43.293 161.352 52.4451 168.078C61.2853 174.574 71.3359 179.228 82 181.768V181.8H82.0373L82.0319 181.826L83.1263 182.051L82.9132 183.005L82.8801 182.998C82.5657 182.927 82.2518 182.855 81.9385 182.781C71.081 180.219 60.848 175.493 51.853 168.883C42.5892 162.076 34.8407 153.418 29.0983 143.459C23.356 133.5 19.7451 122.457 18.4945 111.029C17.2802 99.9329 18.317 88.7092 21.5389 78.0289C21.6343 77.7126 21.7316 77.3968 21.8309 77.0815L21.8335 77.0732L22.1618 77.1766ZM84 178.138V177H84.0013V175.816C84.1615 175.853 84.3218 175.89 84.4822 175.926L84.4935 175.928L84.2755 176.904L84 178.138ZM79.0013 174.484C70.8031 171.995 63.0728 168.13 56.1469 163.04C47.6925 156.827 40.6208 148.926 35.3802 139.837C30.1395 130.748 26.8441 120.67 25.7028 110.24C24.6973 101.052 25.383 91.7685 27.7149 82.8462L26.9009 82.0152C24.4151 91.232 23.6682 100.841 24.7087 110.349C25.8651 120.916 29.204 131.128 34.5139 140.337C39.8237 149.546 46.9887 157.551 55.5547 163.846C62.6539 169.063 70.587 173.01 79.0013 175.528V174.484Z" fill="#8F8F8F"/>
<path fill-rule="evenodd" clip-rule="evenodd" d="M132.5 75.9976H133V76.9976V78.4876V105.617V105.825L132.853 105.971L117.5 121.248V173V175.128V176.158L117.121 176.253L116.5 176.407V175.767V121.04V120.832L116.647 120.685L132 105.409V76.4976V75.9976H132.5ZM122.5 174.914L123.121 174.76L123.5 174.666V174.275V123.735L138.853 108.459L139 108.312V108.104V76.4976V75.9976H138.5H138V76.9976V78.4876V107.896L122.647 123.173L122.5 123.32V123.528V173V173.884V174.914Z" fill="#8F8F8F"/>
<path fill-rule="evenodd" clip-rule="evenodd" d="M174.172 82.481C174.221 82.6641 174.269 82.8474 174.316 83.0309L174.478 83.6831L174.481 83.6825C176.671 92.4929 177.284 101.634 176.279 110.68C175.11 121.196 171.779 131.356 166.496 140.523C161.213 149.69 154.092 157.665 145.579 163.949C138.588 169.109 130.782 173.037 122.5 175.577V174.53C130.565 172.021 138.167 168.177 144.985 163.144C153.387 156.943 160.415 149.071 165.629 140.024C170.844 130.976 174.131 120.948 175.285 110.57C176.301 101.432 175.643 92.1963 173.356 83.3128L174.172 82.481ZM117.5 175.9C117.281 175.952 117.061 176.003 116.841 176.053L116.809 176.06L117.03 177.036L117.5 179.099V177V176V175.9ZM118.194 182.149L118.196 182.156L118.418 183.131C118.743 183.057 119.067 182.981 119.391 182.903C130.186 180.309 140.354 175.575 149.292 168.978C158.497 162.183 166.199 153.558 171.912 143.644C177.625 133.731 181.227 122.743 182.492 111.371C183.719 100.33 182.717 89.1591 179.55 78.5187C179.455 78.1993 179.358 77.8804 179.259 77.562L178.883 77.6787L178.439 78.1319L178.685 79.1227C181.74 89.5391 182.698 100.463 181.498 111.26C180.249 122.495 176.69 133.351 171.046 143.145C165.401 152.939 157.793 161.46 148.698 168.174C139.871 174.689 129.83 179.365 119.169 181.928L119.166 181.914L118.194 182.149Z" fill="#8F8F8F"/>
</svg>
