<svg width="244" height="229" viewBox="0 0 244 229" fill="none" xmlns="http://www.w3.org/2000/svg">
<mask id="path-1-inside-1_2470_2070" fill="white">
<path fill-rule="evenodd" clip-rule="evenodd" d="M0 0.063858V123.203C2.31151 123.053 4.64102 122.977 6.9866 122.977C64.4714 122.977 112.298 168.562 122.341 228.728C132.384 168.562 180.211 122.977 237.696 122.977C239.811 122.977 241.913 123.039 244 123.161V0.0490074C242.439 0.0163841 240.874 0 239.306 0C197.096 0 157.305 11.8691 122.332 32.8549C87.3593 11.8691 47.5678 0 5.35818 0C3.56771 0 1.78159 0.0213547 0 0.063858Z"/>
</mask>
<path d="M0 123.203H-1V124.269L0.0646225 124.2L0 123.203ZM0 0.063858L-0.0238502 -0.935858L-1 -0.91257V0.063858H0ZM122.341 228.728L121.355 228.893H123.327L122.341 228.728ZM244 123.161L243.942 124.159L245 124.221V123.161H244ZM244 0.0490074H245V-0.930317L244.021 -0.950774L244 0.0490074ZM122.332 32.8549L121.817 33.7123L122.332 34.0211L122.846 33.7123L122.332 32.8549ZM1 123.203V0.063858H-1V123.203H1ZM6.9866 121.977C4.61944 121.977 2.26838 122.054 -0.0646225 122.205L0.0646225 124.2C2.35464 124.052 4.6626 123.977 6.9866 123.977V121.977ZM123.327 228.564C113.217 167.995 65.0367 121.977 6.9866 121.977V123.977C63.906 123.977 111.379 169.129 121.355 228.893L123.327 228.564ZM237.696 121.977C179.645 121.977 131.465 167.995 121.355 228.564L123.327 228.893C133.304 169.129 180.776 123.977 237.696 123.977V121.977ZM244.058 122.162C241.951 122.039 239.83 121.977 237.696 121.977V123.977C239.791 123.977 241.874 124.038 243.942 124.159L244.058 122.162ZM243 0.0490074V123.161H245V0.0490074H243ZM244.021 -0.950774C242.453 -0.983543 240.881 -1 239.306 -1V1C240.867 1 242.425 1.01631 243.979 1.04879L244.021 -0.950774ZM239.306 -1C196.904 -1 156.936 10.9239 121.817 31.9974L122.846 33.7123C157.673 12.8143 197.288 1 239.306 1V-1ZM122.846 31.9974C87.7277 10.9239 47.7595 -1 5.35818 -1V1C47.3761 1 86.991 12.8143 121.817 33.7123L122.846 31.9974ZM5.35818 -1C3.55976 -1 1.76569 -0.97855 -0.0238502 -0.935858L0.0238502 1.06357C1.79749 1.02126 3.57566 1 5.35818 1V-1Z" fill="#8F8F8F" mask="url(#path-1-inside-1_2470_2070)"/>
<mask id="path-3-inside-2_2470_2070" fill="white">
<path fill-rule="evenodd" clip-rule="evenodd" d="M122.328 228.666C113.702 177.125 77.3487 136.296 30.9551 125.676C54.2616 86.8001 85.6333 54.7742 122.303 32.771C158.975 54.7759 190.348 86.8049 213.655 125.685C167.284 136.322 130.951 177.142 122.328 228.666Z"/>
</mask>
<path d="M30.9551 125.676L30.0974 125.162L29.389 126.343L30.7319 126.651L30.9551 125.676ZM122.328 228.666L121.342 228.831L123.315 228.831L122.328 228.666ZM122.303 32.771L122.817 31.9135L122.303 31.6048L121.788 31.9135L122.303 32.771ZM213.655 125.685L213.879 126.659L215.221 126.352L214.513 125.171L213.655 125.685ZM30.7319 126.651C76.6854 137.17 112.775 177.642 121.342 228.831L123.315 228.501C114.63 176.609 78.012 135.422 31.1782 124.701L30.7319 126.651ZM121.788 31.9135C84.9679 54.0073 53.4821 86.1555 30.0974 125.162L31.8128 126.19C55.0411 87.4447 86.2988 55.5411 122.817 33.6285L121.788 31.9135ZM214.513 125.171C191.128 86.1603 159.64 54.009 122.817 31.9135L121.788 33.6285C158.309 55.5428 189.569 87.4495 212.798 126.199L214.513 125.171ZM123.315 228.831C131.878 177.658 167.947 137.196 213.879 126.659L213.432 124.71C166.62 135.448 130.024 176.625 121.342 228.501L123.315 228.831Z" fill="#8F8F8F" mask="url(#path-3-inside-2_2470_2070)"/>
<line x1="121.984" y1="227.125" x2="121.984" y2="33.0927" stroke="#8F8F8F"/>
</svg>
