<svg width="804" height="503" viewBox="0 0 804 503" fill="none" xmlns="http://www.w3.org/2000/svg">
<path d="M534.866 248.74C534.866 320.698 476.143 379.032 403.705 379.032C331.267 379.032 272.545 320.698 272.545 248.74C272.545 176.781 331.267 118.448 403.705 118.448C476.143 118.448 534.866 176.781 534.866 248.74ZM323.889 248.74C323.889 292.529 359.624 328.028 403.705 328.028C447.787 328.028 483.522 292.529 483.522 248.74C483.522 204.95 447.787 169.452 403.705 169.452C359.624 169.452 323.889 204.95 323.889 248.74Z" fill="#D9D9D9"/>
<path d="M483.764 248.74C483.764 292.663 447.921 328.269 403.705 328.269C359.49 328.269 323.646 292.663 323.646 248.74C323.646 204.817 359.49 169.211 403.705 169.211C447.921 169.211 483.764 204.817 483.764 248.74ZM362.2 248.74C362.2 271.511 380.783 289.971 403.705 289.971C426.628 289.971 445.211 271.511 445.211 248.74C445.211 225.969 426.628 207.509 403.705 207.509C380.783 207.509 362.2 225.969 362.2 248.74Z" fill="#591E1E"/>
<path d="M752.898 243.663V104.298L804 87.9895V243.663H752.898Z" fill="#25B1F0"/>
<path d="M51.1035 253.816V393.182L0.00202179 409.49V253.816H51.1035Z" fill="#066FB0"/>
<path d="M401.591 480.549C355.423 480.134 310.416 466.124 272.266 440.291C234.115 414.459 204.536 377.965 187.271 335.429L234.846 316.373C248.316 349.56 271.394 378.031 301.158 398.185C330.922 418.339 366.036 429.27 402.055 429.594L401.591 480.549Z" fill="#9CDEF8"/>
<path d="M401.299 16.9332C448.178 16.4532 494.116 30.0105 533.127 55.8387C572.138 81.6669 602.413 118.568 620.009 161.735L572.462 180.86C558.734 147.182 535.113 118.392 504.678 98.2413C474.242 78.0906 438.402 67.5134 401.827 67.8879L401.299 16.9332Z" fill="#0095E2"/>
<path d="M51.133 429.795H402V480.559H0.00158691V407.798L51.133 389.185V429.795Z" fill="#0D8DD7"/>
<path d="M752.867 67.6844H402V16.9211H803.998V89.6818L752.867 108.295V67.6844Z" fill="#9CDEF8"/>
<path d="M402.238 16.9255C364.146 17.1633 326.693 26.6602 293.147 44.587C259.601 62.5138 230.982 88.3255 209.79 119.769C188.598 151.212 175.476 187.33 171.57 224.97C167.664 262.611 173.093 300.629 187.383 335.705L234.934 316.589C223.785 289.223 219.55 259.562 222.597 230.195C225.644 200.829 235.881 172.65 252.415 148.118C268.949 123.587 291.277 103.449 317.449 89.4629C343.621 75.4767 372.842 68.0674 402.56 67.8818L402.238 16.9255Z" fill="#27B1E6"/>
<path d="M402.354 118.455C428.632 118.186 454.385 125.764 476.276 140.208C498.166 154.653 515.184 175.296 525.123 199.462L478.009 218.584C471.927 203.795 461.513 191.161 448.116 182.322C434.72 173.483 418.96 168.845 402.878 169.01L402.354 118.455Z" fill="#9CDEF8"/>
<path d="M405.055 379.025C378.777 379.294 353.023 371.716 331.132 357.272C309.242 342.827 292.224 322.184 282.285 298.018L329.644 278.797C335.707 293.537 346.087 306.128 359.439 314.938C372.791 323.748 388.499 328.371 404.527 328.207L405.055 379.025Z" fill="#9CDEF8"/>
<path d="M402.354 118.455C428.632 118.186 454.385 125.764 476.276 140.208C498.166 154.653 515.184 175.296 525.123 199.462L477.634 218.736C471.582 204.022 461.221 191.452 447.892 182.658C434.563 173.863 418.882 169.248 402.882 169.412L402.354 118.455Z" fill="#9CDEF8"/>
<path d="M402.639 118.452C381.151 118.625 360.035 124.04 341.147 134.221C322.26 144.402 306.18 159.037 294.322 176.839C282.463 194.641 275.19 215.065 273.14 236.314C271.091 257.563 274.328 278.987 282.569 298.702L329.819 279.214C324.793 267.189 322.818 254.122 324.068 241.161C325.318 228.2 329.755 215.743 336.987 204.885C344.22 194.027 354.028 185.101 365.548 178.891C377.068 172.681 389.947 169.379 403.054 169.273L402.639 118.452Z" fill="#27B1E6"/>
<path d="M401.454 379.013C423.176 379.384 444.651 374.388 463.949 364.475C483.248 354.562 499.765 340.043 512.017 322.221C524.27 304.398 531.874 283.832 534.146 262.368C536.419 240.905 533.289 219.217 525.037 199.252L477.752 218.539C482.788 230.723 484.698 243.958 483.311 257.057C481.924 270.156 477.284 282.707 469.806 293.584C462.329 304.46 452.249 313.321 440.471 319.371C428.694 325.421 415.588 328.469 402.331 328.243L401.454 379.013Z" fill="#27B1E6"/>
<path d="M402.88 169.215C418.92 169.051 434.64 173.677 448.002 182.493C461.363 191.31 471.751 203.91 477.818 218.661L442.335 233.062C439.173 225.373 433.758 218.806 426.794 214.21C419.829 209.615 411.636 207.204 403.275 207.289L402.88 169.215Z" fill="#0095E2"/>
<path d="M403.705 328.269C387.884 328.269 372.417 323.613 359.259 314.887C346.1 306.162 335.838 293.76 329.77 279.246L365.168 264.64C368.331 272.205 373.679 278.67 380.538 283.218C387.397 287.766 395.458 290.193 403.705 290.193V328.269Z" fill="#0095E2"/>
<path d="M402.982 169.214C389.853 169.332 376.955 172.655 365.423 178.892C353.892 185.128 344.081 194.087 336.857 204.977C329.632 215.868 325.214 228.356 323.993 241.342C322.771 254.329 324.784 267.414 329.853 279.445L365.211 264.744C362.569 258.473 361.52 251.653 362.157 244.884C362.793 238.115 365.096 231.606 368.862 225.929C372.628 220.253 377.741 215.584 383.751 212.333C389.762 209.082 396.485 207.35 403.328 207.289L402.982 169.214Z" fill="#0570B7"/>
<path d="M402.01 328.251C415.29 328.531 428.431 325.523 440.249 319.5C452.068 313.477 462.192 304.628 469.709 293.75C477.227 282.871 481.901 270.306 483.312 257.185C484.722 244.065 482.824 230.802 477.789 218.592L442.32 233.026C444.944 239.39 445.934 246.303 445.198 253.142C444.463 259.981 442.027 266.53 438.108 272.2C434.19 277.87 428.913 282.483 422.753 285.622C416.593 288.762 409.744 290.329 402.822 290.183L402.01 328.251Z" fill="#0570B7"/>
<path d="M804.001 242.648C804.001 304.974 779.842 364.911 736.531 410.033C693.22 455.156 634.079 482.004 571.367 485.014L568.908 434.515C618.553 432.133 665.372 410.878 699.659 375.157C733.945 339.436 753.071 291.988 753.071 242.648L804.001 242.648Z" fill="#27B1E6"/>
<path d="M401.75 480.551C440.131 480.87 477.999 471.78 511.998 454.086C545.998 436.392 575.079 410.641 596.665 379.114C618.251 347.587 631.676 311.258 635.75 273.345C639.824 235.432 634.421 197.106 620.02 161.763L572.47 180.882C583.706 208.456 587.921 238.357 584.743 267.936C581.564 297.515 571.09 325.859 554.249 350.456C537.408 375.053 514.719 395.144 488.194 408.948C461.668 422.752 432.124 429.844 402.18 429.595L401.75 480.551Z" fill="#0570B7"/>
<path d="M571.124 484.581H489.986C526.542 470.902 544.088 460.308 567.596 435.012H571.124V484.581Z" fill="#27B1E6" stroke="#27B1E6"/>
<path d="M-0.000335693 259.569C-0.000335693 197.243 23.9065 137.307 66.7647 92.184C109.623 47.0614 168.146 20.2129 230.202 17.2036L232.636 67.7023C183.509 70.0845 137.18 91.3389 103.251 127.06C69.3231 162.781 50.3974 210.229 50.3974 259.569H-0.000335693Z" fill="#0570B7"/>
<path d="M228.659 17.7913H309.797C273.241 31.4709 255.696 42.0647 232.187 67.3601H228.659V17.7913Z" fill="#0570B7" stroke="#0570B7"/>
</svg>
