<svg width="808" height="473" viewBox="0 0 808 473" fill="none" xmlns="http://www.w3.org/2000/svg">
<mask id="path-1-inside-1_2471_2133" fill="white">
<path d="M536.366 235.839C536.366 307.798 477.497 366.132 404.879 366.132C332.261 366.132 273.393 307.798 273.393 235.839C273.393 163.881 332.261 105.547 404.879 105.547C477.497 105.547 536.366 163.881 536.366 235.839ZM324.865 235.839C324.865 279.629 360.688 315.127 404.879 315.127C449.07 315.127 484.894 279.629 484.894 235.839C484.894 192.05 449.07 156.551 404.879 156.551C360.688 156.551 324.865 192.05 324.865 235.839Z"/>
</mask>
<path d="M536.366 235.839C536.366 307.798 477.497 366.132 404.879 366.132C332.261 366.132 273.393 307.798 273.393 235.839C273.393 163.881 332.261 105.547 404.879 105.547C477.497 105.547 536.366 163.881 536.366 235.839ZM324.865 235.839C324.865 279.629 360.688 315.127 404.879 315.127C449.07 315.127 484.894 279.629 484.894 235.839C484.894 192.05 449.07 156.551 404.879 156.551C360.688 156.551 324.865 192.05 324.865 235.839Z" stroke="white" stroke-width="2" mask="url(#path-1-inside-1_2471_2133)"/>
<path d="M51.7959 419.766H403.537V468.1H0.537109V398.822L51.7959 381.1V419.766Z" stroke="white"/>
<path d="M755.278 53.4329H403.537V5.09961H806.537V74.3774L755.278 92.0996V53.4329Z" stroke="white"/>
<mask id="path-4-inside-2_2471_2133" fill="white">
<path d="M403.407 4.02512C365.221 4.26293 327.675 13.7598 294.045 31.6866C260.416 49.6134 231.726 75.4251 210.481 106.868C189.236 138.311 176.082 174.43 172.166 212.07C168.251 249.71 173.693 287.728 188.019 322.804L235.688 303.688C224.511 276.322 220.265 246.661 223.32 217.295C226.374 187.928 236.637 159.749 253.212 135.218C269.787 110.687 292.171 90.5488 318.408 76.5625C344.645 62.5763 373.938 55.167 403.731 54.9814L403.407 4.02512Z"/>
</mask>
<path d="M403.407 4.02512C365.221 4.26293 327.675 13.7598 294.045 31.6866C260.416 49.6134 231.726 75.4251 210.481 106.868C189.236 138.311 176.082 174.43 172.166 212.07C168.251 249.71 173.693 287.728 188.019 322.804L235.688 303.688C224.511 276.322 220.265 246.661 223.32 217.295C226.374 187.928 236.637 159.749 253.212 135.218C269.787 110.687 292.171 90.5488 318.408 76.5625C344.645 62.5763 373.938 55.167 403.731 54.9814L403.407 4.02512Z" stroke="white" stroke-width="2" mask="url(#path-4-inside-2_2471_2133)"/>
<mask id="path-5-inside-3_2471_2133" fill="white">
<path d="M403.524 105.554C429.868 105.285 455.685 112.864 477.63 127.308C499.575 141.752 516.635 162.395 526.599 186.562L479.368 205.683C473.271 190.894 462.83 178.261 449.401 169.421C435.971 160.582 420.171 155.944 404.05 156.109L403.524 105.554Z"/>
</mask>
<path d="M403.524 105.554C429.868 105.285 455.685 112.864 477.63 127.308C499.575 141.752 516.635 162.395 526.599 186.562L479.368 205.683C473.271 190.894 462.83 178.261 449.401 169.421C435.971 160.582 420.171 155.944 404.05 156.109L403.524 105.554Z" stroke="white" stroke-width="2" mask="url(#path-5-inside-3_2471_2133)"/>
<mask id="path-6-inside-4_2471_2133" fill="white">
<path d="M404.877 366.132C378.648 366.132 353.02 358.359 331.284 343.813C309.549 329.266 292.701 308.611 282.905 284.502L330.48 265.521C336.455 280.226 346.732 292.825 359.989 301.697C373.247 310.57 388.879 315.31 404.877 315.31V366.132Z"/>
</mask>
<path d="M404.877 366.132C378.648 366.132 353.02 358.359 331.284 343.813C309.549 329.266 292.701 308.611 282.905 284.502L330.48 265.521C336.455 280.226 346.732 292.825 359.989 301.697C373.247 310.57 388.879 315.31 404.877 315.31V366.132Z" stroke="white" stroke-width="2" mask="url(#path-6-inside-4_2471_2133)"/>
<mask id="path-7-inside-5_2471_2133" fill="white">
<path d="M403.81 105.551C382.268 105.725 361.1 111.14 342.165 121.321C323.231 131.502 307.111 146.137 295.223 163.939C283.335 181.741 276.044 202.164 273.989 223.413C271.935 244.663 275.18 266.087 283.441 285.801L330.809 266.313C325.77 254.288 323.791 241.221 325.044 228.26C326.297 215.3 330.744 202.843 337.995 191.985C345.246 181.127 355.078 172.2 366.627 165.991C378.175 159.781 391.087 156.478 404.226 156.372L403.81 105.551Z"/>
</mask>
<path d="M403.81 105.551C382.268 105.725 361.1 111.14 342.165 121.321C323.231 131.502 307.111 146.137 295.223 163.939C283.335 181.741 276.044 202.164 273.989 223.413C271.935 244.663 275.18 266.087 283.441 285.801L330.809 266.313C325.77 254.288 323.791 241.221 325.044 228.26C326.297 215.3 330.744 202.843 337.995 191.985C345.246 181.127 355.078 172.2 366.627 165.991C378.175 159.781 391.087 156.478 404.226 156.372L403.81 105.551Z" stroke="white" stroke-width="2" mask="url(#path-7-inside-5_2471_2133)"/>
<mask id="path-8-inside-6_2471_2133" fill="white">
<path d="M404.413 366.131C426.094 366.207 447.457 360.969 466.601 350.884C485.745 340.799 502.076 326.18 514.138 308.328C526.2 290.475 533.62 269.944 535.738 248.563C537.855 227.181 534.604 205.613 526.273 185.778L478.964 205.288C484.048 217.393 486.032 230.555 484.74 243.604C483.448 256.653 478.919 269.183 471.558 280.078C464.196 290.972 454.23 299.894 442.547 306.049C430.864 312.204 417.826 315.4 404.595 315.354L404.413 366.131Z"/>
</mask>
<path d="M404.413 366.131C426.094 366.207 447.457 360.969 466.601 350.884C485.745 340.799 502.076 326.18 514.138 308.328C526.2 290.475 533.62 269.944 535.738 248.563C537.855 227.181 534.604 205.613 526.273 185.778L478.964 205.288C484.048 217.393 486.032 230.555 484.74 243.604C483.448 256.653 478.919 269.183 471.558 280.078C464.196 290.972 454.23 299.894 442.547 306.049C430.864 312.204 417.826 315.4 404.595 315.354L404.413 366.131Z" stroke="white" stroke-width="2" mask="url(#path-8-inside-6_2471_2133)"/>
<mask id="path-9-inside-7_2471_2133" fill="white">
<path d="M402.578 468.65C441.235 468.971 479.37 459.794 513.573 441.94C547.775 424.086 576.98 398.111 598.576 366.338C620.171 334.565 633.484 297.984 637.324 259.866C641.164 221.749 635.412 183.282 620.581 147.906L573.091 167.455C584.662 195.055 589.15 225.066 586.154 254.805C583.158 284.544 572.771 313.083 555.923 337.872C539.074 362.661 516.289 382.926 489.605 396.855C462.92 410.785 433.168 417.945 403.008 417.694L402.578 468.65Z"/>
</mask>
<path d="M402.578 468.65C441.235 468.971 479.37 459.794 513.573 441.94C547.775 424.086 576.98 398.111 598.576 366.338C620.171 334.565 633.484 297.984 637.324 259.866C641.164 221.749 635.412 183.282 620.581 147.906L573.091 167.455C584.662 195.055 589.15 225.066 586.154 254.805C583.158 284.544 572.771 313.083 555.923 337.872C539.074 362.661 516.289 382.926 489.605 396.855C462.92 410.785 433.168 417.945 403.008 417.694L402.578 468.65Z" stroke="white" stroke-width="2" mask="url(#path-9-inside-7_2471_2133)"/>
<circle cx="403.172" cy="236.1" r="41.5" stroke="#9F9F9F"/>
<path d="M404.037 277.1H405.537V320.1H404.037V277.1Z" fill="white"/>
<rect x="403.236" y="154.1" width="1.6" height="41" fill="white"/>
<rect x="364.834" y="251.466" width="1.04944" height="42.2669" transform="rotate(68 364.834 251.466)" fill="white"/>
<rect x="483.5" y="203.071" width="1.39027" height="45.4249" transform="rotate(68 483.5 203.071)" fill="white"/>
<path fill-rule="evenodd" clip-rule="evenodd" d="M402.759 467.649L402.768 466.649L403.209 418.462L403.218 417.462L403.106 417.461C366.883 417.114 331.574 406.139 301.64 385.92C271.675 365.681 248.443 337.089 234.882 303.762L234.881 303.76L188.835 322.157L187.907 322.528L187.906 322.528L187.907 322.53C188.032 322.838 188.158 323.146 188.285 323.454C204.101 361.846 229.992 395.266 263.183 420.3H264.85C231.293 395.29 205.13 361.713 189.214 323.083L234.331 305.057C248.019 338.175 271.227 366.585 301.08 386.749C330.933 406.913 366.101 417.932 402.209 418.451L401.768 466.638C401.758 466.638 401.747 466.638 401.736 466.638V467.6H399.623C400.335 467.616 401.047 467.629 401.759 467.638C402.093 467.642 402.426 467.646 402.759 467.649Z" fill="white"/>
<path fill-rule="evenodd" clip-rule="evenodd" d="M402.477 5.03309L402.467 4.03315C402.8 4.02973 403.133 4.02705 403.467 4.02506C413.083 3.96755 422.657 4.49756 432.139 5.59994H421.371C415.431 5.1822 409.462 4.98932 403.477 5.025L403.986 53.9803C440.504 53.8044 476.253 64.429 506.654 84.5068C537.055 104.584 560.711 133.193 574.603 166.663L620.413 148.283C604.799 110.546 579.409 77.665 546.924 52.8999H548.567C580.699 77.6804 605.826 110.408 621.341 147.91C621.468 148.218 621.595 148.526 621.721 148.835L620.793 149.207L574.056 167.96L574.055 167.959C560.293 134.281 536.614 105.492 506.103 85.3412C475.591 65.1905 439.662 54.6133 402.997 54.9878H402.997L402.987 53.9878L402.477 5.03309Z" fill="white"/>
<path fill-rule="evenodd" clip-rule="evenodd" d="M50.8379 244.6H51.0391V381.6L1.03906 397.417V245.1H1.03711V243.6H0.539062H0.0390625V244.1V398.1V398.782L0.689869 398.576L51.6899 382.443L52.0391 382.333V381.966V244.1V243.6H51.5391H50.8379V244.6Z" fill="white"/>
<path fill-rule="evenodd" clip-rule="evenodd" d="M50.8379 242.1H50.7827C51.2856 193.193 70.2165 146.266 103.798 110.819C137.491 75.2539 183.374 53.9447 232.104 51.1908H233.612L233.656 52.0968L233.657 52.1105L233.656 52.1105C184.625 54.4944 138.386 75.7625 104.524 111.506C70.6613 147.25 51.7724 194.729 51.7724 244.1H50.8379V242.1ZM1.03755 243.1H1.00204C1.25565 180.968 25.1371 121.273 67.7678 76.274C110.243 31.4392 168.102 4.60008 229.537 1.18582V1.1001H231.205L231.205 1.09894L231.158 0.112457L231.157 0.100098C230.824 0.116302 230.491 0.133179 230.158 0.150726C168.215 3.41904 109.848 30.402 67.0418 75.5863C24.2346 120.772 0.255646 180.713 0.00204468 243.1C0.000701904 243.434 0 243.767 0 244.1H1H1.03755V243.1Z" fill="white"/>
<path fill-rule="evenodd" clip-rule="evenodd" d="M756.355 228.283H756.154V91.2823L806.154 75.4653V227.782H806.156V229.283H806.654H807.154V228.783V74.7827V74.1001L806.503 74.306L755.503 90.4393L755.154 90.5498V90.916V228.783V229.283H755.654H756.355V228.283Z" fill="white"/>
<path fill-rule="evenodd" clip-rule="evenodd" d="M756.355 230.782H756.411C755.908 279.69 736.977 326.617 703.395 362.064C669.703 397.628 623.82 418.938 575.089 421.692H573.581L573.537 420.785L573.537 420.772L573.537 420.772C622.568 418.388 668.807 397.12 702.67 361.376C736.532 325.632 755.421 278.154 755.421 228.782H756.355V230.782ZM806.156 229.782H806.191C805.938 291.914 782.056 351.609 739.426 396.608C696.951 441.443 639.092 468.282 577.656 471.697V471.782H575.988L575.988 471.783L576.036 472.77L576.036 472.782C576.369 472.766 576.702 472.749 577.035 472.732C638.978 469.463 697.346 442.48 740.152 397.296C782.959 352.11 806.938 292.169 807.191 229.782C807.193 229.449 807.193 229.115 807.193 228.782H806.193H806.156V229.782Z" fill="white"/>
<path fill-rule="evenodd" clip-rule="evenodd" d="M235.191 52H235.408L235.556 51.8415C247.705 38.8502 258.298 29.65 270.566 21.9417C282.838 14.2308 296.803 8.0012 315.713 0.968639L315.539 0H231.539H231.039V0.5V1.1001H232.039V1H312.778C295.139 7.65319 281.821 13.6886 270.034 21.0949C257.724 28.83 247.102 38.0489 234.974 51H232.538V51.1001H231.039V51.5V52H231.539H235.191Z" fill="white"/>
<path fill-rule="evenodd" clip-rule="evenodd" d="M571.884 420.609H571.666L571.518 420.769C559.369 433.812 548.776 443.05 536.509 450.789C524.237 458.531 510.271 464.785 491.361 471.846L491.536 472.815H575.536H576.036V472.315V471.8H575.036V471.815H494.287C511.931 465.133 525.253 459.072 537.042 451.635C549.353 443.868 559.974 434.612 572.102 421.609H575.036V421.618H576.036V421.109V420.609H575.536H571.884Z" fill="white"/>
</svg>
