<svg width="190" height="182" viewBox="0 0 190 182" fill="none" xmlns="http://www.w3.org/2000/svg">
<g filter="url(#filter0_d_2470_1792)">
<mask id="path-1-inside-1_2470_1792" fill="white">
<path fill-rule="evenodd" clip-rule="evenodd" d="M180.426 71C181.677 77.3508 182.207 83.8427 181.992 90.3522C181.571 103.085 178.31 115.563 172.447 126.874C166.584 138.184 158.268 148.042 148.106 155.725C137.944 163.409 126.193 168.725 113.713 171.284C101.233 173.843 88.3385 173.581 75.9727 170.516C63.6069 167.452 52.0822 161.663 42.2411 153.572C36.6742 148.996 31.7256 143.748 27.5 137.964C29.4033 137.039 31.1583 135.822 32.6987 134.35C35.089 132.067 36.8917 129.239 37.953 126.109C39.0144 122.978 39.303 119.637 38.7942 116.371C38.6195 115.25 38.3527 114.149 37.9982 113.079L58.5302 93.7916C58.9175 93.9324 59.3094 94.0618 59.7056 94.1794C62.6831 95.0631 65.8226 95.2587 68.8868 94.7514C71.6102 94.3005 74.2108 93.3049 76.5346 91.828L96.0406 103.824C96.0598 105.151 96.2079 106.478 96.4858 107.786C97.2181 111.234 98.8271 114.434 101.157 117.079C103.487 119.724 106.46 121.723 109.788 122.884C113.117 124.044 116.688 124.327 120.157 123.705C123.627 123.083 126.877 121.576 129.594 119.331C132.312 117.087 134.405 114.179 135.671 110.889C136.937 107.6 137.333 104.039 136.821 100.552C136.64 99.3157 136.347 98.1035 135.948 96.9294L163.254 71.2782C165.472 72.2582 167.862 72.8437 170.317 72.9903C173.819 73.1993 177.297 72.5054 180.426 71Z"/>
</mask>
<path d="M181.992 90.3522L182.991 90.3852L182.991 90.3852L181.992 90.3522ZM180.426 71L181.407 70.8067L181.157 69.5385L179.992 70.0989L180.426 71ZM172.447 126.874L171.559 126.413L171.559 126.413L172.447 126.874ZM148.106 155.725L148.709 156.523L148.709 156.523L148.106 155.725ZM75.9727 170.516L76.2133 169.546L76.2133 169.546L75.9727 170.516ZM42.2411 153.572L42.8762 152.8L42.8762 152.8L42.2411 153.572ZM27.5 137.964L27.0628 137.065L25.9866 137.588L26.6925 138.554L27.5 137.964ZM32.6987 134.35L32.008 133.627L32.008 133.627L32.6987 134.35ZM38.7942 116.371L37.8061 116.525L38.7942 116.371ZM37.9982 113.079L37.3135 112.35L36.8481 112.788L37.0489 113.394L37.9982 113.079ZM58.5302 93.7916L58.8721 92.8518L58.294 92.6415L57.8456 93.0627L58.5302 93.7916ZM59.7056 94.1794L59.9901 93.2207L59.9901 93.2207L59.7056 94.1794ZM68.8868 94.7514L69.0501 95.738L69.0501 95.738L68.8868 94.7514ZM76.5346 91.828L77.0584 90.9762L76.5258 90.6487L75.9982 90.984L76.5346 91.828ZM96.0406 103.824L97.0405 103.809L97.0326 103.26L96.5644 102.972L96.0406 103.824ZM96.4858 107.786L97.464 107.578L97.464 107.578L96.4858 107.786ZM101.157 117.079L101.908 116.418L101.908 116.418L101.157 117.079ZM109.788 122.884L110.118 121.939L110.118 121.939L109.788 122.884ZM120.157 123.705L119.981 122.72L119.981 122.72L120.157 123.705ZM135.671 110.889L134.737 110.53L134.737 110.53L135.671 110.889ZM136.821 100.552L137.811 100.407L137.811 100.407L136.821 100.552ZM135.948 96.9294L135.263 96.2006L134.794 96.6415L135.001 97.2512L135.948 96.9294ZM163.254 71.2782L163.658 70.3635L163.052 70.0958L162.569 70.5494L163.254 71.2782ZM170.317 72.9903L170.376 71.992L170.376 71.992L170.317 72.9903ZM182.991 90.3852C183.209 83.7997 182.673 77.2318 181.407 70.8067L179.445 71.1933C180.681 77.4698 181.205 83.8858 180.992 90.3191L182.991 90.3852ZM173.335 127.334C179.266 115.891 182.565 103.267 182.991 90.3852L180.992 90.3191C180.576 102.903 177.353 115.235 171.559 126.413L173.335 127.334ZM148.709 156.523C158.99 148.75 167.403 138.777 173.335 127.334L171.559 126.413C165.765 137.592 157.546 147.334 147.503 154.928L148.709 156.523ZM113.914 172.264C126.54 169.675 138.428 164.297 148.709 156.523L147.503 154.928C137.46 162.522 125.846 167.775 113.512 170.304L113.914 172.264ZM75.7322 171.487C88.2426 174.587 101.288 174.853 113.914 172.264L113.512 170.304C101.178 172.834 88.4344 172.574 76.2133 169.546L75.7322 171.487ZM41.6061 154.345C51.5622 162.53 63.2218 168.387 75.7322 171.487L76.2133 169.546C63.9921 166.517 52.6022 160.796 42.8762 152.8L41.6061 154.345ZM26.6925 138.554C30.9675 144.406 35.974 149.715 41.6061 154.345L42.8762 152.8C37.3743 148.277 32.4836 143.091 28.3075 137.374L26.6925 138.554ZM32.008 133.627C30.5427 135.027 28.8733 136.185 27.0628 137.065L27.9372 138.864C29.9333 137.893 31.7739 136.617 33.3895 135.073L32.008 133.627ZM37.006 125.788C35.9964 128.766 34.2817 131.455 32.008 133.627L33.3895 135.073C35.8964 132.679 37.787 129.713 38.9001 126.43L37.006 125.788ZM37.8061 116.525C38.2901 119.632 38.0156 122.81 37.006 125.788L38.9001 126.43C40.0132 123.147 40.3159 119.643 39.7822 116.217L37.8061 116.525ZM37.0489 113.394C37.3861 114.412 37.6399 115.459 37.8061 116.525L39.7822 116.217C39.5991 115.041 39.3192 113.887 38.9474 112.765L37.0489 113.394ZM57.8456 93.0627L37.3135 112.35L38.6828 113.808L59.2149 94.5204L57.8456 93.0627ZM59.9901 93.2207C59.6132 93.1088 59.2404 92.9858 58.8721 92.8518L58.1884 94.7313C58.5945 94.879 59.0055 95.0147 59.421 95.138L59.9901 93.2207ZM68.7235 93.7648C65.8087 94.2474 62.8224 94.0613 59.9901 93.2207L59.421 95.138C62.5438 96.0649 65.8364 96.27 69.0501 95.738L68.7235 93.7648ZM75.9982 90.984C73.7878 92.3889 71.314 93.3359 68.7235 93.7648L69.0501 95.738C71.9063 95.2651 74.6339 94.2209 77.071 92.672L75.9982 90.984ZM96.5644 102.972L77.0584 90.9762L76.0107 92.6798L95.5168 104.675L96.5644 102.972ZM97.464 107.578C97.1997 106.334 97.0588 105.071 97.0405 103.809L95.0407 103.838C95.0609 105.23 95.2162 106.622 95.5076 107.994L97.464 107.578ZM101.908 116.418C99.691 113.902 98.1606 110.858 97.464 107.578L95.5076 107.994C96.2757 111.61 97.9631 114.967 100.407 117.74L101.908 116.418ZM110.118 121.939C106.952 120.835 104.124 118.934 101.908 116.418L100.407 117.74C102.851 120.514 105.969 122.611 109.459 123.828L110.118 121.939ZM119.981 122.72C116.681 123.312 113.284 123.043 110.118 121.939L109.459 123.828C112.95 125.045 116.695 125.342 120.334 124.689L119.981 122.72ZM128.958 118.56C126.373 120.696 123.281 122.129 119.981 122.72L120.334 124.689C123.972 124.036 127.381 122.457 130.231 120.102L128.958 118.56ZM134.737 110.53C133.533 113.659 131.543 116.425 128.958 118.56L130.231 120.102C133.081 117.748 135.276 114.699 136.604 111.249L134.737 110.53ZM135.832 100.697C136.319 104.014 135.942 107.401 134.737 110.53L136.604 111.249C137.932 107.799 138.347 104.064 137.811 100.407L135.832 100.697ZM135.001 97.2512C135.381 98.368 135.66 99.5211 135.832 100.697L137.811 100.407C137.621 99.1103 137.313 97.839 136.895 96.6076L135.001 97.2512ZM162.569 70.5494L135.263 96.2006L136.633 97.6583L163.939 72.0071L162.569 70.5494ZM170.376 71.992C168.042 71.8527 165.768 71.2957 163.658 70.3635L162.85 72.1929C165.176 73.2207 167.683 73.8348 170.257 73.9885L170.376 71.992ZM179.992 70.0989C177.016 71.5309 173.708 72.1909 170.376 71.992L170.257 73.9885C173.93 74.2077 177.578 73.48 180.86 71.9011L179.992 70.0989Z" fill="#8F8F8F" mask="url(#path-1-inside-1_2470_1792)"/>
<mask id="path-3-inside-2_2470_1792" fill="white">
<path fill-rule="evenodd" clip-rule="evenodd" d="M18.5 134C10.4919 134 4 127.508 4 119.5C4 113.06 8.19778 107.601 14.0062 105.71C14.0021 105.64 14 105.57 14 105.5V59.5C14 57.567 15.567 56 17.5 56C19.433 56 21 57.567 21 59.5V105.215C22.6389 105.5 24.1833 106.059 25.584 106.845L29.5 103.167V32.5C29.5 30.567 31.067 29 33 29C34.933 29 36.5 30.567 36.5 32.5V96.5906L45 88.6056V18.5C45 16.567 46.567 15 48.5 15C50.433 15 52 16.567 52 18.5V69.1979C53.5107 65.3544 56.6153 62.3122 60.5 60.8851V10.5C60.5 8.567 62.067 7 64 7C65.933 7 67.5 8.567 67.5 10.5V60.1368C70.8265 60.5957 73.7927 62.183 76 64.5V5.5C76 3.567 77.567 2 79.5 2C81.433 2 83 3.567 83 5.5V80.5672L91.5 85.7939V3.5C91.5 1.56701 93.067 0 95 0C96.933 0 98.5 1.567 98.5 3.5V90.0982L105.306 94.2831C105.821 93.6576 106.388 93.0761 107 92.545L107 92.5V5C107 3.067 108.567 1.5 110.5 1.5C112.433 1.5 114 3.067 114 5V89.2147C114.812 89.0736 115.647 89 116.5 89C118.64 89 120.672 89.4636 122.5 90.2957V9C122.5 7.06701 124.067 5.5 126 5.5C127.933 5.5 129.5 7.067 129.5 9V85.0489L138.001 77.0633C138 77.0423 138 77.0212 138 77V17C138 15.067 139.567 13.5 141.5 13.5C143.433 13.5 145 15.067 145 17V70.488L153.5 62.503V30.5C153.5 28.567 155.067 27 157 27C158.933 27 160.5 28.567 160.5 30.5V42.5524C163.159 39.4591 167.101 37.5 171.5 37.5C179.508 37.5 186 43.9919 186 52C186 60.0081 179.508 66.5 171.5 66.5C168.175 66.5 165.111 65.3806 162.664 63.498L128.597 95.5019C130.115 97.7945 131 100.544 131 103.5C131 111.508 124.508 118 116.5 118C108.492 118 102 111.508 102 103.5C102 102.521 102.097 101.565 102.282 100.641L76.0118 84.4877C73.37 87.2672 69.6374 89 65.5 89C62.5088 89 59.7291 88.0943 57.4203 86.5421L30.6933 111.65C32.1529 113.912 33 116.607 33 119.5C33 127.508 26.5081 134 18.5 134ZM65.5 82.8702C60.8773 82.8702 57.1298 79.1227 57.1298 74.5C57.1298 69.8773 60.8773 66.1298 65.5 66.1298C70.1227 66.1298 73.8702 69.8773 73.8702 74.5C73.8702 79.1227 70.1227 82.8702 65.5 82.8702ZM163.13 52C163.13 56.6227 166.877 60.3702 171.5 60.3702C176.123 60.3702 179.87 56.6227 179.87 52C179.87 47.3773 176.123 43.6298 171.5 43.6298C166.877 43.6298 163.13 47.3773 163.13 52ZM108.13 103.5C108.13 108.123 111.877 111.87 116.5 111.87C121.123 111.87 124.87 108.123 124.87 103.5C124.87 98.8773 121.123 95.1298 116.5 95.1298C111.877 95.1298 108.13 98.8773 108.13 103.5ZM18.5 127.87C13.8773 127.87 10.1298 124.123 10.1298 119.5C10.1298 114.877 13.8773 111.13 18.5 111.13C23.1227 111.13 26.8702 114.877 26.8702 119.5C26.8702 124.123 23.1227 127.87 18.5 127.87Z"/>
</mask>
<path d="M14.0062 105.71L14.3158 106.661L15.05 106.422L15.0044 105.651L14.0062 105.71ZM21 105.215H20V106.056L20.8288 106.2L21 105.215ZM25.584 106.845L25.0947 107.717L25.7342 108.076L26.2687 107.574L25.584 106.845ZM29.5 103.167L30.1847 103.895L30.5 103.599V103.167H29.5ZM36.5 96.5906H35.5V98.9021L37.1847 97.3195L36.5 96.5906ZM45 88.6056L45.6847 89.3345L46 89.0383V88.6056H45ZM52 69.1979H51L52.9307 69.5637L52 69.1979ZM60.5 60.8851L60.8448 61.8238L61.5 61.5831V60.8851H60.5ZM67.5 60.1368H66.5V61.0083L67.3633 61.1274L67.5 60.1368ZM76 64.5L75.276 65.1897L77 66.9994V64.5H76ZM83 80.5672H82V81.1262L82.4762 81.4191L83 80.5672ZM91.5 85.7939L90.9762 86.6457L92.5 87.5827V85.7939H91.5ZM98.5 90.0982H97.5V90.6572L97.9762 90.95L98.5 90.0982ZM105.306 94.2831L104.782 95.1349L105.524 95.591L106.077 94.9191L105.306 94.2831ZM107 92.545L107.656 93.3002L108.003 92.9987L108 92.5387L107 92.545ZM107 92.5L106 92.5L106 92.5063L107 92.5ZM114 89.2147H113V90.4035L114.171 90.1999L114 89.2147ZM122.5 90.2957L122.086 91.2059L123.5 91.8495V90.2957H122.5ZM129.5 85.0489H128.5V87.3603L130.185 85.7777L129.5 85.0489ZM138.001 77.0633L138.685 77.7922L139.008 77.4886L139 77.0452L138.001 77.0633ZM145 70.488H144V72.7994L145.685 71.2168L145 70.488ZM153.5 62.503L154.185 63.2318L154.5 62.9356V62.503H153.5ZM160.5 42.5524H159.5V45.2496L161.258 43.2043L160.5 42.5524ZM162.664 63.498L163.274 62.7055L162.6 62.1866L161.98 62.7692L162.664 63.498ZM128.597 95.5019L127.912 94.773L127.297 95.3508L127.763 96.0542L128.597 95.5019ZM102.282 100.641L103.262 100.837L103.399 100.154L102.806 99.7892L102.282 100.641ZM76.0118 84.4877L76.5356 83.6358L75.8452 83.2113L75.2869 83.7987L76.0118 84.4877ZM57.4203 86.5421L57.9782 85.7122L57.3167 85.2674L56.7356 85.8133L57.4203 86.5421ZM30.6933 111.65L30.0086 110.921L29.4012 111.492L29.853 112.192L30.6933 111.65ZM3 119.5C3 128.06 9.93959 135 18.5 135V133C11.0442 133 5 126.956 5 119.5H3ZM13.6965 104.759C7.48859 106.781 3 112.615 3 119.5H5C5 113.506 8.90696 108.422 14.3158 106.661L13.6965 104.759ZM13 105.5C13 105.59 13.0027 105.68 13.0079 105.769L15.0044 105.651C15.0015 105.601 15 105.551 15 105.5H13ZM13 59.5V105.5H15V59.5H13ZM17.5 55C15.0147 55 13 57.0147 13 59.5H15C15 58.1193 16.1193 57 17.5 57V55ZM22 59.5C22 57.0147 19.9853 55 17.5 55V57C18.8807 57 20 58.1193 20 59.5H22ZM22 105.215V59.5H20V105.215H22ZM26.0733 105.973C24.5757 105.133 22.9239 104.534 21.1712 104.229L20.8288 106.2C22.3538 106.465 23.791 106.986 25.0947 107.717L26.0733 105.973ZM28.8153 102.438L24.8993 106.116L26.2687 107.574L30.1847 103.895L28.8153 102.438ZM28.5 32.5V103.167H30.5V32.5H28.5ZM33 28C30.5147 28 28.5 30.0147 28.5 32.5H30.5C30.5 31.1193 31.6193 30 33 30V28ZM37.5 32.5C37.5 30.0147 35.4853 28 33 28V30C34.3807 30 35.5 31.1193 35.5 32.5H37.5ZM37.5 96.5906V32.5H35.5V96.5906H37.5ZM44.3153 87.8768L35.8153 95.8618L37.1847 97.3195L45.6847 89.3345L44.3153 87.8768ZM44 18.5V88.6056H46V18.5H44ZM48.5 14C46.0147 14 44 16.0147 44 18.5H46C46 17.1193 47.1193 16 48.5 16V14ZM53 18.5C53 16.0147 50.9853 14 48.5 14V16C49.8807 16 51 17.1193 51 18.5H53ZM53 69.1979V18.5H51V69.1979H53ZM60.1552 59.9465C56.0019 61.4722 52.6843 64.7232 51.0693 68.8321L52.9307 69.5637C54.3371 65.9856 57.2288 63.1522 60.8448 61.8238L60.1552 59.9465ZM59.5 10.5V60.8851H61.5V10.5H59.5ZM64 6C61.5147 6 59.5 8.01472 59.5 10.5H61.5C61.5 9.11929 62.6193 8 64 8V6ZM68.5 10.5C68.5 8.01472 66.4853 6 64 6V8C65.3807 8 66.5 9.11929 66.5 10.5H68.5ZM68.5 60.1368V10.5H66.5V60.1368H68.5ZM76.724 63.8102C74.3659 61.3349 71.1947 59.6371 67.6367 59.1462L67.3633 61.1274C70.4582 61.5544 73.2196 63.0312 75.276 65.1897L76.724 63.8102ZM75 5.5V64.5H77V5.5H75ZM79.5 1C77.0147 1 75 3.01472 75 5.5H77C77 4.11929 78.1193 3 79.5 3V1ZM84 5.5C84 3.01472 81.9853 1 79.5 1V3C80.8807 3 82 4.11929 82 5.5H84ZM84 80.5672V5.5H82V80.5672H84ZM92.0238 84.942L83.5238 79.7154L82.4762 81.4191L90.9762 86.6457L92.0238 84.942ZM90.5 3.5V85.7939H92.5V3.5H90.5ZM95 -1C92.5147 -1 90.5 1.01472 90.5 3.5H92.5C92.5 2.11929 93.6193 1 95 1V-1ZM95 1C96.3807 1 97.5 2.11929 97.5 3.5H99.5C99.5 1.01472 97.4853 -1 95 -1V1ZM97.5 3.5V90.0982H99.5V3.5H97.5ZM97.9762 90.95L104.782 95.1349L105.83 93.4312L99.0238 89.2463L97.9762 90.95ZM106.077 94.9191C106.558 94.3366 107.086 93.7949 107.656 93.3002L106.345 91.7898C105.691 92.3573 105.085 92.9786 104.534 93.647L106.077 94.9191ZM108 92.5387L108 92.4937L106 92.5063L106 92.5513L108 92.5387ZM108 92.5V5H106V92.5H108ZM108 5C108 3.61929 109.119 2.5 110.5 2.5V0.5C108.015 0.5 106 2.51472 106 5H108ZM110.5 2.5C111.881 2.5 113 3.61929 113 5H115C115 2.51472 112.985 0.5 110.5 0.5V2.5ZM113 5V89.2147H115V5H113ZM114.171 90.1999C114.927 90.0686 115.705 90 116.5 90V88C115.59 88 114.697 88.0786 113.829 88.2295L114.171 90.1999ZM116.5 90C118.494 90 120.385 90.4317 122.086 91.2059L122.914 89.3856C120.958 88.4954 118.786 88 116.5 88V90ZM123.5 90.2957V9H121.5V90.2957H123.5ZM123.5 9C123.5 7.61929 124.619 6.5 126 6.5V4.5C123.515 4.5 121.5 6.51472 121.5 9H123.5ZM126 6.5C127.381 6.5 128.5 7.61929 128.5 9H130.5C130.5 6.51472 128.485 4.5 126 4.5V6.5ZM128.5 9V85.0489H130.5V9H128.5ZM130.185 85.7777L138.685 77.7922L137.316 76.3345L128.815 84.32L130.185 85.7777ZM139 77.0452C139 77.0305 139 77.0154 139 77H137C137 77.0269 137 77.0541 137.001 77.0814L139 77.0452ZM139 77V17H137V77H139ZM139 17C139 15.6193 140.119 14.5 141.5 14.5V12.5C139.015 12.5 137 14.5147 137 17H139ZM141.5 14.5C142.881 14.5 144 15.6193 144 17H146C146 14.5147 143.985 12.5 141.5 12.5V14.5ZM144 17V70.488H146V17H144ZM145.685 71.2168L154.185 63.2318L152.815 61.7741L144.315 69.7591L145.685 71.2168ZM154.5 62.503V30.5H152.5V62.503H154.5ZM154.5 30.5C154.5 29.1193 155.619 28 157 28V26C154.515 26 152.5 28.0147 152.5 30.5H154.5ZM157 28C158.381 28 159.5 29.1193 159.5 30.5H161.5C161.5 28.0147 159.485 26 157 26V28ZM159.5 30.5V42.5524H161.5V30.5H159.5ZM161.258 43.2043C163.736 40.3225 167.404 38.5 171.5 38.5V36.5C166.797 36.5 162.583 38.5956 159.742 41.9005L161.258 43.2043ZM171.5 38.5C178.956 38.5 185 44.5442 185 52H187C187 43.4396 180.06 36.5 171.5 36.5V38.5ZM171.5 67.5C180.06 67.5 187 60.5604 187 52H185C185 59.4558 178.956 65.5 171.5 65.5V67.5ZM162.055 64.2905C164.67 66.3029 167.946 67.5 171.5 67.5V65.5C168.403 65.5 165.552 64.4583 163.274 62.7055L162.055 64.2905ZM129.281 96.2307L163.349 64.2269L161.98 62.7692L127.912 94.773L129.281 96.2307ZM132 103.5C132 100.342 131.054 97.4009 129.43 94.9496L127.763 96.0542C129.177 98.1881 130 100.746 130 103.5H132ZM116.5 119C125.06 119 132 112.06 132 103.5H130C130 110.956 123.956 117 116.5 117V119ZM101 103.5C101 112.06 107.94 119 116.5 119V117C109.044 117 103 110.956 103 103.5H101ZM101.301 100.445C101.104 101.433 101 102.455 101 103.5H103C103 102.588 103.09 101.697 103.262 100.837L101.301 100.445ZM75.488 85.3395L101.758 101.493L102.806 99.7892L76.5356 83.6358L75.488 85.3395ZM65.5 90C69.9226 90 73.9139 88.1464 76.7366 85.1766L75.2869 83.7987C72.8261 86.3879 69.3521 88 65.5 88V90ZM56.8624 87.372C59.331 89.0316 62.3039 90 65.5 90V88C62.7137 88 60.1273 87.157 57.9782 85.7122L56.8624 87.372ZM31.378 112.379L58.105 87.2709L56.7356 85.8133L30.0086 110.921L31.378 112.379ZM34 119.5C34 116.409 33.0943 113.527 31.5336 111.108L29.853 112.192C31.2115 114.298 32 116.805 32 119.5H34ZM18.5 135C27.0604 135 34 128.06 34 119.5H32C32 126.956 25.9558 133 18.5 133V135ZM56.1298 74.5C56.1298 79.675 60.325 83.8702 65.5 83.8702V81.8702C61.4296 81.8702 58.1298 78.5704 58.1298 74.5H56.1298ZM65.5 65.1298C60.325 65.1298 56.1298 69.325 56.1298 74.5H58.1298C58.1298 70.4296 61.4296 67.1298 65.5 67.1298V65.1298ZM74.8702 74.5C74.8702 69.325 70.675 65.1298 65.5 65.1298V67.1298C69.5704 67.1298 72.8702 70.4296 72.8702 74.5H74.8702ZM65.5 83.8702C70.675 83.8702 74.8702 79.675 74.8702 74.5H72.8702C72.8702 78.5704 69.5704 81.8702 65.5 81.8702V83.8702ZM171.5 59.3702C167.43 59.3702 164.13 56.0704 164.13 52H162.13C162.13 57.175 166.325 61.3702 171.5 61.3702V59.3702ZM178.87 52C178.87 56.0704 175.57 59.3702 171.5 59.3702V61.3702C176.675 61.3702 180.87 57.175 180.87 52H178.87ZM171.5 44.6298C175.57 44.6298 178.87 47.9296 178.87 52H180.87C180.87 46.825 176.675 42.6298 171.5 42.6298V44.6298ZM164.13 52C164.13 47.9296 167.43 44.6298 171.5 44.6298V42.6298C166.325 42.6298 162.13 46.825 162.13 52H164.13ZM116.5 110.87C112.43 110.87 109.13 107.57 109.13 103.5H107.13C107.13 108.675 111.325 112.87 116.5 112.87V110.87ZM123.87 103.5C123.87 107.57 120.57 110.87 116.5 110.87V112.87C121.675 112.87 125.87 108.675 125.87 103.5H123.87ZM116.5 96.1298C120.57 96.1298 123.87 99.4296 123.87 103.5H125.87C125.87 98.325 121.675 94.1298 116.5 94.1298V96.1298ZM109.13 103.5C109.13 99.4296 112.43 96.1298 116.5 96.1298V94.1298C111.325 94.1298 107.13 98.325 107.13 103.5H109.13ZM9.12983 119.5C9.12983 124.675 13.325 128.87 18.5 128.87V126.87C14.4296 126.87 11.1298 123.57 11.1298 119.5H9.12983ZM18.5 110.13C13.325 110.13 9.12983 114.325 9.12983 119.5H11.1298C11.1298 115.43 14.4296 112.13 18.5 112.13V110.13ZM27.8702 119.5C27.8702 114.325 23.675 110.13 18.5 110.13V112.13C22.5704 112.13 25.8702 115.43 25.8702 119.5H27.8702ZM18.5 128.87C23.675 128.87 27.8702 124.675 27.8702 119.5H25.8702C25.8702 123.57 22.5704 126.87 18.5 126.87V128.87Z" fill="#8F8F8F" mask="url(#path-3-inside-2_2470_1792)"/>
</g>
<defs>
<filter id="filter0_d_2470_1792" x="0" y="0" width="190" height="181.027" filterUnits="userSpaceOnUse" color-interpolation-filters="sRGB">
<feFlood flood-opacity="0" result="BackgroundImageFix"/>
<feColorMatrix in="SourceAlpha" type="matrix" values="0 0 0 0 0 0 0 0 0 0 0 0 0 0 0 0 0 0 127 0" result="hardAlpha"/>
<feOffset dy="4"/>
<feGaussianBlur stdDeviation="2"/>
<feComposite in2="hardAlpha" operator="out"/>
<feColorMatrix type="matrix" values="0 0 0 0 0 0 0 0 0 0 0 0 0 0 0 0 0 0 0.25 0"/>
<feBlend mode="normal" in2="BackgroundImageFix" result="effect1_dropShadow_2470_1792"/>
<feBlend mode="normal" in="SourceGraphic" in2="effect1_dropShadow_2470_1792" result="shape"/>
</filter>
</defs>
</svg>
