<svg width="102" height="179" viewBox="0 0 102 179" fill="none" xmlns="http://www.w3.org/2000/svg">
<path d="M56.7024 1L57.1844 1.13298L56.3065 0.694598L56.7024 1ZM69.2027 135.5L68.7979 135.206L68.7939 135.212L69.2027 135.5ZM31.7027 89L32.1538 89.2155L32.1649 89.1923L32.1735 89.1682L31.7027 89ZM38.2023 40.5L38.6785 40.3476L38.2023 38.8594L37.7261 40.3476L38.2023 40.5ZM26.2014 60.5L25.8359 60.1588L25.8359 60.1588L26.2014 60.5ZM25.5004 61.2481L25.1359 60.9059L25.1359 60.9059L25.5004 61.2481ZM9.41531 82.6633L8.9761 82.4244L8.77416 82.7956L9.1065 83.0566L9.41531 82.6633ZM1.70873 105L1.70844 104.5L1.27941 104.5L1.21449 104.924L1.70873 105ZM2.20231 126.5L1.71168 126.596L1.71168 126.596L2.20231 126.5ZM2.50389 128.002L2.01411 128.102L2.09745 128.508L2.51162 128.501L2.50389 128.002ZM9.67604 150.875L9.3967 150.46L9.03802 150.702L9.22542 151.092L9.67604 150.875ZM23.8483 168.464L23.5375 168.855L24.0128 169.232L24.2921 168.694L23.8483 168.464ZM41.1582 176.697L40.6595 176.661L40.6293 177.079L41.0355 177.181L41.1582 176.697ZM60.4265 177.218L60.5321 177.707L60.9989 177.606L60.9195 177.135L60.4265 177.218ZM78.0758 168.594L77.6129 168.783L77.8653 169.401L78.3875 168.985L78.0758 168.594ZM87.2012 159.5L87.5871 159.818L87.5871 159.818L87.2012 159.5ZM92.9235 151.005L93.3627 151.244L93.5842 150.837L93.1949 150.585L92.9235 151.005ZM100.033 128.004L100.02 128.504L100.474 128.516L100.529 128.065L100.033 128.004ZM99.6351 105L100.13 104.927L100.067 104.502L99.6377 104.5L99.6351 105ZM92.8454 82.0459L93.12 82.4637L93.4892 82.2212L93.294 81.8249L92.8454 82.0459ZM91.2018 79L90.7719 79.2553L90.7719 79.2553L91.2018 79ZM76.1238 59.6157L76.5069 59.2943L76.5069 59.2943L76.1238 59.6157ZM64.2019 44.5L63.7752 44.7607L63.7752 44.7607L64.2019 44.5ZM55.7019 25L56.1908 24.8952L56.1908 24.8952L55.7019 25ZM59.0959 72.6916C36.0869 43.3353 48.1815 12.8642 57.0983 1.3054L56.3065 0.694598C47.2233 12.4692 34.9179 43.4647 58.3089 73.3084L59.0959 72.6916ZM69.6074 135.794C75.9181 127.095 82.4194 102.449 59.0959 72.6916L58.3089 73.3084C81.3853 102.751 74.8204 126.905 68.798 135.206L69.6074 135.794ZM34.3639 140.368C42.0921 147.486 49.6122 148.241 55.8685 146.226C62.0806 144.225 66.9863 139.514 69.6114 135.788L68.7939 135.212C66.2523 138.819 61.508 143.359 55.5619 145.274C49.6598 147.175 42.5132 146.514 35.0414 139.632L34.3639 140.368ZM31.2515 88.7845C28.5625 94.4146 25.4906 103.729 25.0033 113.412C24.5161 123.094 26.6114 133.227 34.3639 140.368L35.0414 139.632C27.594 132.773 25.5226 122.99 26.002 113.463C26.4814 103.937 29.5095 94.7521 32.1538 89.2155L31.2515 88.7845ZM40.212 60.4019C39.0208 66.358 33.7364 81.8186 31.2318 88.8318L32.1735 89.1682C34.6687 82.1814 39.9838 66.642 41.1926 60.5981L40.212 60.4019ZM37.7261 40.6524C38.386 42.7145 39.3048 46.1905 39.9088 49.893C40.5149 53.6081 40.7938 57.4932 40.212 60.4019L41.1926 60.5981C41.8109 57.5068 41.5064 53.4752 40.8958 49.732C40.2831 45.9762 39.352 42.4522 38.6785 40.3476L37.7261 40.6524ZM26.5669 60.8412C29.403 57.8024 32.0919 53.8081 34.2358 50.0608C36.3782 46.3163 37.997 42.7823 38.6785 40.6524L37.7261 40.3476C37.0744 42.3843 35.4927 45.8504 33.3679 49.5642C31.2447 53.2752 28.5997 57.1976 25.8359 60.1588L26.5669 60.8412ZM25.865 61.5903C26.1138 61.3252 26.3484 61.0752 26.5669 60.8412L25.8359 60.1588C25.6186 60.3917 25.3849 60.6405 25.1359 60.9059L25.865 61.5903ZM9.85452 82.9023C15.36 72.7826 22.202 65.4924 25.865 61.5903L25.1359 60.9059C21.467 64.8142 14.5475 72.1837 8.9761 82.4244L9.85452 82.9023ZM14.7012 92.5C14.7012 88.3473 12.7538 84.6493 9.72412 82.2701L9.1065 83.0566C11.9051 85.2543 13.7012 88.6672 13.7012 92.5H14.7012ZM1.70903 105.5C8.88588 105.496 14.7012 99.6771 14.7012 92.5H13.7012C13.7012 99.125 8.33323 104.496 1.70844 104.5L1.70903 105.5ZM2.69294 126.404C1.18952 118.748 1.20147 111.618 2.20298 105.076L1.21449 104.924C0.19637 111.575 0.184905 118.822 1.71168 126.596L2.69294 126.404ZM2.99366 127.901C2.89245 127.408 2.79221 126.909 2.69294 126.404L1.71168 126.596C1.8115 127.105 1.91231 127.606 2.01411 128.102L2.99366 127.901ZM2.51162 128.501C2.57469 128.5 2.63788 128.5 2.70117 128.5V127.5C2.6327 127.5 2.56437 127.501 2.49616 127.502L2.51162 128.501ZM2.70117 128.5C9.32931 128.5 14.7012 133.873 14.7012 140.5H15.7012C15.7012 133.32 9.88163 127.5 2.70117 127.5V128.5ZM14.7012 140.5C14.7012 144.648 12.5976 148.304 9.3967 150.46L9.95537 151.29C13.4205 148.956 15.7012 144.994 15.7012 140.5H14.7012ZM24.159 168.072C18.7704 163.797 14.0775 158.875 10.1267 150.658L9.22542 151.092C13.2551 159.472 18.0569 164.507 23.5375 168.855L24.159 168.072ZM31.7012 162.5C28.1986 162.5 25.1735 164.822 23.4044 168.234L24.2921 168.694C25.9439 165.509 28.6774 163.5 31.7012 163.5V162.5ZM41.7012 175.5C41.7012 171.949 40.6077 168.715 38.8165 166.359C37.0251 164.002 34.5141 162.5 31.7012 162.5V163.5C34.1344 163.5 36.3733 164.797 38.0204 166.964C39.6677 169.131 40.7012 172.148 40.7012 175.5H41.7012ZM41.6569 176.733C41.6862 176.327 41.7012 175.916 41.7012 175.5H40.7012C40.7012 175.892 40.6871 176.279 40.6595 176.661L41.6569 176.733ZM60.3209 176.73C53.6671 178.167 47.199 177.711 41.2809 176.212L41.0355 177.181C47.0745 178.711 53.7012 179.183 60.5321 177.707L60.3209 176.73ZM60.9195 177.135C60.7767 176.288 60.7012 175.406 60.7012 174.5H59.7012C59.7012 175.461 59.7813 176.399 59.9334 177.301L60.9195 177.135ZM60.7012 174.5C60.7012 171.148 61.7346 168.131 63.382 165.964C65.029 163.797 67.268 162.5 69.7012 162.5V161.5C66.8883 161.5 64.3772 163.002 62.5858 165.359C60.7947 167.715 59.7012 170.949 59.7012 174.5H60.7012ZM69.7012 162.5C73.0565 162.5 76.0597 164.978 77.6129 168.783L78.5387 168.405C76.8871 164.359 73.5912 161.5 69.7012 161.5V162.5ZM86.8152 159.182C83.8429 162.791 80.814 165.771 77.764 168.203L78.3875 168.985C81.4966 166.505 84.5745 163.476 87.5871 159.818L86.8152 159.182ZM92.4843 150.766C90.8889 153.698 89.0095 156.518 86.8152 159.182L87.5871 159.818C89.8236 157.102 91.7382 154.229 93.3627 151.244L92.4843 150.766ZM86.7012 140.5C86.7012 145.082 89.0721 149.11 92.652 151.425L93.1949 150.585C89.8879 148.447 87.7012 144.729 87.7012 140.5H86.7012ZM99.7012 127.5C92.5207 127.5 86.7012 133.32 86.7012 140.5H87.7012C87.7012 133.873 93.073 128.5 99.7012 128.5V127.5ZM100.046 127.504C99.9315 127.502 99.8165 127.5 99.7012 127.5V128.5C99.8078 128.5 99.9141 128.501 100.02 128.504L100.046 127.504ZM99.1405 105.073C100.21 112.303 100.489 120.137 99.5368 127.944L100.529 128.065C101.494 120.157 101.211 112.232 100.13 104.927L99.1405 105.073ZM86.7012 92.5C86.7012 99.6568 92.4836 105.463 99.6325 105.5L99.6377 104.5C93.0388 104.466 87.7012 99.1063 87.7012 92.5H86.7012ZM92.5709 81.628C89.0363 83.9506 86.7012 87.9524 86.7012 92.5H87.7012C87.7012 88.3032 89.8549 84.6092 93.12 82.4637L92.5709 81.628ZM90.7719 79.2553C91.3217 80.1811 91.8651 81.1874 92.3969 82.2668L93.294 81.8249C92.7518 80.7244 92.196 79.6951 91.6318 78.7447L90.7719 79.2553ZM75.7408 59.9371C81.659 66.9911 87.9287 74.4667 90.7719 79.2553L91.6318 78.7447C88.7361 73.8679 82.3971 66.3149 76.5069 59.2943L75.7408 59.9371ZM63.7752 44.7607C65.8373 48.1353 70.6644 53.8864 75.7408 59.9371L76.5069 59.2943C71.4009 53.2085 66.6407 47.5323 64.6285 44.2393L63.7752 44.7607ZM55.2129 25.1048C56.7287 32.1782 58.258 35.7317 63.7752 44.7607L64.6285 44.2393C59.1468 35.2683 57.675 31.8218 56.1908 24.8952L55.2129 25.1048ZM56.2204 0.867019C55.5384 3.33907 54.9865 7.98457 54.7527 12.6877C54.519 17.3875 54.5982 22.2358 55.2129 25.1048L56.1908 24.8952C55.6055 22.1642 55.5182 17.4292 55.7514 12.7373C55.9845 8.04876 56.5329 3.49426 57.1844 1.13298L56.2204 0.867019Z" fill="#8F8F8F"/>
</svg>
