<svg width="100" height="178" viewBox="0 0 100 178" fill="none" xmlns="http://www.w3.org/2000/svg">
<path fill-rule="evenodd" clip-rule="evenodd" d="M55.7024 0C46.7024 11.6667 34.5024 42.4 57.7024 72C80.9024 101.6 74.3692 126 68.2027 134.5C63.036 141.833 48.9027 153 33.7027 139C18.5027 125 25.3693 99.1667 30.7027 88C33.2025 81 38.5023 65.5 39.7023 59.5C40.9023 53.5 38.5356 43.6667 37.2023 39.5C35.869 43.6667 30.8014 53.5 25.2014 59.5C24.9835 59.7334 24.7494 59.9829 24.5004 60.2481C20.8344 64.1533 13.9537 71.4832 8.41522 81.6635C11.3293 83.952 13.2012 87.5074 13.2012 91.5C13.2012 98.401 7.60882 103.996 0.708734 104C-0.301081 110.596 -0.312789 117.785 1.20231 125.5C1.30186 126.007 1.40238 126.507 1.50389 127.002C1.56953 127.001 1.63529 127 1.70117 127C8.60473 127 14.2012 132.596 14.2012 139.5C14.2012 143.821 12.0089 147.63 8.67596 149.875C12.6662 158.174 17.4136 163.152 22.8482 167.464C24.5585 164.165 27.4376 162 30.7012 162C35.9479 162 40.2012 167.596 40.2012 174.5C40.2012 174.904 40.1866 175.303 40.1582 175.697C46.1367 177.211 52.6841 177.675 59.4265 176.218C59.279 175.343 59.2012 174.434 59.2012 173.5C59.2012 166.596 63.4545 161 68.7012 161C72.3243 161 75.4736 163.669 77.0759 167.594C80.1554 165.138 83.2087 162.134 86.2012 158.5C88.4166 155.81 90.3136 152.963 91.9236 150.005C88.4802 147.779 86.2012 143.905 86.2012 139.5C86.2012 132.596 91.7976 127 98.7012 127C98.8121 127 98.9228 127.001 99.0331 127.004C99.9918 119.147 99.7107 111.268 98.6351 104C91.7619 103.964 86.2012 98.3815 86.2012 91.5C86.2012 87.1279 88.4458 83.2801 91.8455 81.0461C91.3085 79.956 90.7589 78.9381 90.2018 78C87.3324 73.1673 81.028 65.653 75.1238 58.6157C70.0326 52.5474 65.239 46.8338 63.2019 43.5C57.7024 34.5 56.2019 31 54.7019 24C53.5019 18.4 54.3689 4.83333 55.7024 0Z" fill="#25B1E9"/>
<path d="M71.1007 159C82.5668 144.6 77.1962 115 73.0776 102C74.6591 150.8 49.6848 149 37 142V163L41.448 176H60.2277C57.4601 166 66.3232 160.5 71.1007 159Z" fill="url(#paint0_linear_2478_2262)"/>
<path d="M13.205 106.5C14.005 126.5 28.8717 138.833 36.205 142.5C28.705 135.5 26.2051 122 25.2051 114.5C24.4051 108.5 33.8717 75.6667 38.7051 60L36.205 56C28.205 64.5 12.405 86.5 13.205 106.5Z" fill="url(#paint1_linear_2478_2262)"/>
<path d="M50.0239 30C49.9398 28.9148 50.0344 26.3797 51.0239 18L51.5239 25.5L52.5239 32L52.5716 32.1829C53.4209 35.4376 53.8693 37.1561 55.0239 40C56.361 43.5025 57.2734 45.3339 59.0239 48.5L66.0239 60L76.0239 75C80.169 81.8703 82.2061 85.8752 85.0239 93.5C87.123 102.146 87.8423 106.956 88.5239 115.5C84.2274 112.019 82.1949 109.664 80.5239 103.5L76.0239 89C73.7167 83.5689 72.1058 80.5031 68.5239 75C65.3968 70.4815 64.427 68.7566 62.5239 65.5C58.6478 58.1708 56.4968 54.0592 53.5239 46.5C51.14 40.0739 50.4655 36.4569 50.0239 30Z" fill="url(#paint2_linear_2478_2262)" fill-opacity="0.47"/>
<defs>
<linearGradient id="paint0_linear_2478_2262" x1="82.2661" y1="143" x2="36.7826" y2="148.375" gradientUnits="userSpaceOnUse">
<stop stop-color="#385CA7"/>
<stop offset="1" stop-color="#25B1E9"/>
</linearGradient>
<linearGradient id="paint1_linear_2478_2262" x1="23.7051" y1="65.5" x2="32.7051" y2="142" gradientUnits="userSpaceOnUse">
<stop stop-color="#0E92D1"/>
<stop offset="1" stop-color="#385CA7"/>
</linearGradient>
<linearGradient id="paint2_linear_2478_2262" x1="42" y1="14.5" x2="87.5" y2="115" gradientUnits="userSpaceOnUse">
<stop offset="0.12071" stop-color="white"/>
<stop offset="1" stop-color="white" stop-opacity="0.1"/>
</linearGradient>
</defs>
</svg>
